<svg version="1.2" xmlns="http://www.w3.org/2000/svg" viewBox="0 0 1500 1000" width="1500" height="1000">
	<title>8899729-ai</title>
	<style>
		.s0 { fill: #f9e4ca } 
		.s1 { fill: #dbb997 } 
		.s2 { fill: #f2dbaa } 
		.s3 { fill: none;stroke: #b28f6f;stroke-miterlimit:10;stroke-width: 3 } 
		.s4 { fill: #f7bc81 } 
		.s5 { fill: #ffe6c2 } 
		.s6 { fill: none;stroke: #cc8f58;stroke-miterlimit:10;stroke-width: 3 } 
		.s7 { fill: none;stroke: #f7eab5;stroke-miterlimit:10;stroke-width: 3 } 
		.s8 { fill: #ffe7b0 } 
		.s9 { fill: none;stroke: #e5ca9a;stroke-miterlimit:10;stroke-width: 3 } 
		.s10 { fill: #af8b6d } 
		.s11 { fill: none;stroke: #292944;stroke-miterlimit:10;stroke-width: 3 } 
		.s12 { fill: #eac88b } 
		.s13 { fill: #ddb576 } 
		.s14 { fill: none;stroke: #e0bf85;stroke-miterlimit:10;stroke-width: 3 } 
		.s15 { fill: none;stroke: #c6ac8f;stroke-miterlimit:10;stroke-width: 3 } 
		.s16 { fill: #c1b376 } 
		.s17 { fill: none;stroke: #898050;stroke-miterlimit:10;stroke-width: 3 } 
		.s18 { fill: #ffffff } 
		.s19 { fill: none;stroke: #e0d1af;stroke-miterlimit:10;stroke-width: 3 } 
		.s20 { fill: #998c53 } 
		.s21 { fill: none;stroke: #605534;stroke-miterlimit:10;stroke-width: 3 } 
		.s22 { fill: #ef750d } 
		.s23 { fill: #d3691a } 
		.s24 { fill: none;stroke: #d3b997;stroke-miterlimit:10;stroke-width: 3 } 
		.s25 { fill: #6b543c } 
		.s26 { fill: #9b6f48 } 
		.s27 { fill: #d5a47b } 
		.s28 { fill: none;stroke: #ba855d;stroke-miterlimit:10;stroke-width: 3 } 
		.s29 { fill: none;stroke: #231f20;stroke-miterlimit:10;stroke-width: 3 } 
		.s30 { fill: #292944 } 
		.s31 { fill: none;stroke: #8c7e56;stroke-linecap: round;stroke-miterlimit:10;stroke-width: 3 } 
		.s32 { fill: none;stroke: #8c7e56;stroke-miterlimit:10;stroke-width: 3 } 
		.s33 { fill: none;stroke: #8c7e56;stroke-linecap: round;stroke-miterlimit:10;stroke-width: 4 } 
		.s34 { fill: #ffbf66 } 
		.s35 { fill: #31212f } 
		.s36 { fill: none;stroke: #5b465a;stroke-miterlimit:10;stroke-width: 3 } 
		.s37 { fill: #5b465a } 
		.s38 { fill: none;stroke: #5b465a;stroke-linejoin: round;stroke-width: 3 } 
		.s39 { fill: none;stroke: #5b465a;stroke-linecap: round;stroke-miterlimit:10;stroke-width: 3 } 
		.s40 { fill: #fff3c0 } 
		.s41 { fill: #ddcf94 } 
		.s42 { fill: none;stroke: #dbc97d;stroke-miterlimit:10;stroke-width: 3 } 
		.s43 { fill: #e05d4f } 
		.s44 { fill: #fec74f } 
		.s45 { fill: #efb745 } 
		.s46 { fill: #edcfb4 } 
		.s47 { fill: none;stroke: #d6aa83;stroke-miterlimit:10;stroke-width: 3 } 
		.s48 { fill: #98a48d } 
		.s49 { fill: #6c7761 } 
		.s50 { opacity: .3;mix-blend-mode: screen;fill: #ffffe6 } 
		.s51 { fill: #ffbf82 } 
		.s52 { fill: #e89d60 } 
		.s53 { fill: #231f20 } 
		.s54 { fill: none;stroke: #fff2cc;stroke-miterlimit:10;stroke-width: 3 } 
		.s55 { fill: #989dd8 } 
		.s56 { fill: #eaa56c } 
		.s57 { fill: none;stroke: #edd9c5;stroke-miterlimit:10;stroke-width: 3 } 
		.s58 { fill: none;stroke: #ef750d;stroke-miterlimit:10;stroke-width: 3 } 
	</style>
	<g id="OBJECTS">
		<path id="&lt;Path&gt;" class="s0" d="m136.1 941.8c0.1 0 1247 0 1247.3 0 12.9 0 37.4-64.1 41.4-75 10.3-28.2 14.1-50.8 7.6-79.9-12.8-56.6-50.7-101.7-94.2-138.5-48.8-41.2-104.8-75.1-145.8-124.2-12.2-14.5-23.1-30.5-29.4-48.5-14.2-40.2-4-84.5-7-127-3.8-52.8-28.9-103.7-68.6-138.6-26.9-23.7-60.2-39.9-95.2-47-39.7-7.9-75.7 0.4-115 6.3-74 11.2-149.2 7.4-221.9-11.1-58-14.8-119.2-37-180.9-30.7-57.4 5.9-112.3 31.3-155.3 69.6-53.3 47.4-89.7 115-103.6 187.2-7.1 36.5-9.7 73.9-17.9 110.1-24.9 110.6-129 203.7-131.4 305.7-1.2 50.8 24.1 103.9 69.9 141.6z"/>
		<g id="&lt;Group&gt;">
			<g id="&lt;Group&gt;">
				<path id="&lt;Path&gt;" class="s1" d="m360.5 346.6h135.6v-38.5h-135.6c-10.6 0-19.3 8.6-19.3 19.2 0 10.7 8.7 19.3 19.3 19.3z"/>
				<path id="&lt;Path&gt;" class="s1" d="m479.2 346.6h94.3v-38.5h-94.3c-10.7 0-19.3 8.6-19.3 19.2 0 10.7 8.6 19.3 19.3 19.3z"/>
				<path id="&lt;Path&gt;" class="s2" d="m480.5 315.2h93v24.2h-93c-6.7 0-12.1-5.4-12.1-12.1 0-6.7 5.4-12.1 12.1-12.1z"/>
				<path id="&lt;Path&gt;" class="s3" d="m467.9 345.3c-4.8-3.9-8-10.5-8-18 0-7.5 3.2-14.1 8-18"/>
				<path id="&lt;Path&gt;" class="s3" d="m365 345.3c-4.8-3.9-8-10.5-8-18 0-7.5 3.2-14.1 8-18"/>
			</g>
			<g id="&lt;Group&gt;">
				<path id="&lt;Path&gt;" class="s4" d="m354.7 257.2c-14.4 0-26 11.7-26 26.1 0 14.3 11.6 26 26 26h115.3v-52.1z"/>
				<path id="&lt;Path&gt;" class="s4" d="m447.1 257.2c-14.4 0-26.1 11.7-26.1 26.1 0 14.3 11.7 26 26.1 26h127.4v-52.1z"/>
				<path id="&lt;Path&gt;" class="s5" d="m448.8 266.9c-9 0-16.4 7.3-16.4 16.4 0 9 7.4 16.4 16.4 16.4h125.7v-32.8z"/>
				<path id="&lt;Path&gt;" class="s6" d="m426.2 303.2c-4.2-4.3-7-11.6-7-19.9 0-8.3 2.8-15.6 7-20"/>
				<path id="&lt;Path&gt;" class="s6" d="m348.6 303.2c-4.3-4.3-7.1-11.6-7.1-19.9 0-8.3 2.8-15.6 7.1-20"/>
			</g>
			<g id="&lt;Group&gt;">
				<path id="&lt;Path&gt;" class="s2" d="m633.5 335l-39.7 12.8-44.2-137.3 39.7-12.8z"/>
				<path id="&lt;Path&gt;" class="s7" d="m554.9 222.4l36.5-11.8"/>
				<path id="&lt;Path&gt;" class="s7" d="m558.4 232.1l36.5-11.7"/>
				<path id="&lt;Path&gt;" class="s7" d="m592.3 337.6l36.5-11.8"/>
			</g>
			<g id="&lt;Group&gt;">
				<path id="&lt;Path&gt;" class="s8" d="m690.2 330.1l-52.6 17.7-44.2-137.3 52.6-17.7z"/>
				<path id="&lt;Path&gt;" class="s9" d="m604.3 225.4l41.1-13.8"/>
				<path id="&lt;Path&gt;" class="s9" d="m652.3 263.1c5.9 18.2 5.4 34.7-1.1 36.8-6.4 2.1-16.4-11-22.3-29.3-5.8-18.2-5.3-34.6 1.1-36.7 6.5-2.1 16.5 11 22.3 29.2z"/>
				<path id="&lt;Path&gt;" class="s9" d="m636.1 323.7l41.2-13.8"/>
				<path id="&lt;Path&gt;" class="s9" d="m640 335.9l41.2-13.8"/>
			</g>
			<g id="&lt;Group&gt;">
				<path id="&lt;Path&gt;" class="s1" d="m1237.4 408.5h-152.3v-96.7h152.3z"/>
				<path id="&lt;Path&gt;" class="s10" d="m1204.6 341.8h-86.7c-2.4 0-4.4-2-4.4-4.4v-0.9c0-2.4 2-4.4 4.4-4.4h86.7c2.4 0 4.4 2 4.4 4.4v0.9c0 2.4-2 4.4-4.4 4.4z"/>
				<path id="&lt;Path&gt;" class="s1" d="m1242 321.2h-161.5v-31.9h161.5z"/>
				<path id="&lt;Path&gt;" class="s11" d="m1237.4 321.5h-152.3"/>
			</g>
			<g id="&lt;Group&gt;">
				<path id="&lt;Path&gt;" class="s12" d="m1299 406.6h-169.9v-48.2h169.9c13.4 0 24.2 10.8 24.2 24.1 0 13.3-10.8 24.1-24.2 24.1z"/>
				<path id="&lt;Path&gt;" class="s12" d="m1196.2 406.6h-72.9v-48.2h72.9c13.3 0 24.1 10.8 24.1 24.1 0 13.3-10.8 24.1-24.1 24.1z"/>
				<path id="&lt;Path&gt;" class="s2" d="m1194.6 367.3h-71.3v30.4h71.3c8.4 0 15.2-6.8 15.2-15.2 0-8.4-6.8-15.2-15.2-15.2z"/>
				<path id="&lt;Path&gt;" class="s11" d="m1211.3 402.4c6.3-4.3 10.5-11.6 10.5-19.9 0-8.3-4.2-15.6-10.5-20"/>
				<path id="&lt;Path&gt;" class="s11" d="m1223.8 402.4c6.4-4.3 10.6-11.6 10.6-19.9 0-8.3-4.2-15.6-10.6-20"/>
				<path id="&lt;Path&gt;" class="s13" d="m1285.8 362.5h-48.2c5.5 4.4 9.1 11.7 9.1 20 0 8.3-3.6 15.6-9.1 19.9h48.2c5.5-4.3 9.1-11.6 9.1-19.9 0-8.3-3.6-15.6-9.1-20z"/>
				<path id="&lt;Path&gt;" class="s11" d="m1299.6 402.4c6.4-4.3 10.6-11.6 10.6-19.9 0-8.3-4.2-15.6-10.6-20"/>
				<path id="&lt;Path&gt;" class="s14" d="m1209.5 379.7h-86.2"/>
				<path id="&lt;Path&gt;" class="s14" d="m1207.3 389.4h-84"/>
			</g>
			<path id="&lt;Path&gt;" class="s15" d="m214.9 528.1h388"/>
			<path id="&lt;Path&gt;" class="s15" d="m252.6 347.8h455.4"/>
			<path id="&lt;Path&gt;" class="s15" d="m1035.4 408.5h319.6"/>
			<g id="&lt;Group&gt;">
				<path id="&lt;Path&gt;" class="s16" d="m449.4 428.3c6.4-3.4 13-9 13-16.3 0-3.2-1.3-6.5-0.8-9.7 0.3-2.3 1.5-4.3 2.9-6.2 5-6.5 12.6-10.5 19.7-14.7 7.1-4.2 14.3-9.1 17.9-16.5 3.6-7.4 2-18-5.4-21.7-2.6-1.3-5.7-1.6-8.1-3.2-3.7-2.5-5.2-7.2-5.7-11.6-0.6-5.4-0.2-10.9-0.4-16.3-0.3-5.5-1.2-11.1-4.2-15.7-3-4.5-8.4-7.8-13.8-7-7.2 1.1-11.6 8.8-13.2 15.9-1.7 7.2-1.9 14.9-5.7 21.2-5 8.1-15.1 11.9-21.2 19.2-4.6 5.5-6.7 12.9-5.8 20 1 7.5 5.2 15.6 1.5 22.3-2.6 4.5-8.4 6.8-10.3 11.7-1.8 4.8 0.3 9.7 0.5 14.5 0.4 10.8-8.5 18.5-9 28.6-0.3 4.4 2.6 9.2 7.3 9.6 5.1 0.5 7.9-3.9 10.9-7.2 8.2-8.9 19.4-11.4 29.9-16.9z"/>
				<path id="&lt;Path&gt;" class="s17" d="m470.6 291.1c-4.9 10-6.9 21.3-5.8 32.3 0.5 4.9 1.7 10 0.4 14.7-2.9 10.9-16.6 15.7-20.6 26.2-3.9 10 2.2 22.6-3.8 31.5-3.9 5.8-12.1 8.6-13.6 15.4-0.6 3 0.3 6.1-0.1 9.2-0.8 5.1-5 8.8-8.7 12.5-7.5 7.4-13.9 18.1-10.4 28"/>
				<path id="&lt;Path&gt;" class="s18" d="m484 526.6h-188.9v-60.5h188.9z"/>
				<path id="&lt;Path&gt;" class="s19" d="m295.1 477.5h188.9"/>
				<path id="&lt;Path&gt;" class="s20" d="m339.2 365.6q-1.5-3.5-2.6-7.2c-5.5-16.8-12.3-30.9-31.5-34.3-5.9-1.1-11.9-0.7-17.8-1.8-9.1-1.6-17.3-6.5-25.5-11-8.2-4.4-17.1-8.5-26.3-8.1-9.3 0.4-19 6.5-20.4 15.8-0.9 6.3 2.1 12.5 5.6 17.9 3.4 5.3 7.5 10.5 9.2 16.6 2.1 7.8 0.2 16.3 3.4 23.7 3.1 7.3 10.7 11.8 18.4 13.8 7.7 1.9 15.8 1.8 23.7 2.6 18.5 2 17.2 22.1 31.4 29 3.2 1.6 6.9 1.8 10.5 2.4 11.6 1.9 22.5 7.7 30.5 16.3 3.5 3.8 6.5 8 10.4 11.3 2.5 2 5.6 3.7 8.8 3.8 5.7 0.1 10.5-4.4 12.8-9.6 7.7-17.8-3.8-42.3-17.5-53.9-3.6-3.1-7.7-5.7-11.2-9-5.3-5.1-9.1-11.5-11.9-18.3z"/>
				<path id="&lt;Path&gt;" class="s20" d="m461.2 425.4c-15.8 7.6-55.1 6.9-55.1 30.2 0 3.3 1.8 6.7 5 8 4.1 1.7 8.8-0.5 13.1-1.9 7.8-2.5 16.5-2.3 24.1 0.4 9.9 3.6 20.5 13.1 31.9 9.8 4.4-1.3 6.5-4.5 11.3-4.9 6.3-0.5 13.4 4.3 18.2 7.6 7.1 4.8 14.8 10.2 23.5 9.3 3-0.3 6-1.5 7.5-3.9 0.8-1.2 1.2-2.6 1.4-3.9 0.9-5.8-0.6-11.9-4.1-16.7-5.2-7.1-11-11-13.7-19.5-3.4-10.8-11.8-11.5-22-14.9-8.5-2.9-17.6-4.9-26.7-4.1-5.4 0.5-9.9 2.4-14.4 4.5z"/>
				<path id="&lt;Path&gt;" class="s21" d="m221.2 309.4c15.9 4.9 25.8 21.2 41.2 27.5 9.4 3.9 20.5 3.8 28.9 9.7 11.6 8.1 13.7 24.4 22.1 35.8 7.9 10.4 20.6 15.9 30.5 24.5 15.9 13.6 23.8 34.2 31.1 53.9"/>
				<path id="&lt;Path&gt;" class="s20" d="m319.1 431.8c17.5 0 35.3 6.6 50.3 15.4 2.6 1.5 5.2 3.2 6.6 5.8 1.5 2.7 1.2 6.5-1.2 8.2-2 1.4-4.7 1-7.2 1-5.3 0-10.6 2.3-14.3 6.1-6.2 6.4-8.3 16.9-16.5 20.6-3.3 1.5-7.2 1.5-10.7 3-8.7 3.6-3.8 13.9-4.2 20.8-0.4 6.5-5.5 11.8-10.9 15.6-5.4 3.8-11.4 6.8-15.5 12-8 10.1-6.4 26.1-15.8 35-7.6 7.3-20.8 6.7-28.9-0.1-8.1-6.8-11.2-18.3-9.3-28.7 2.2-11.9 10-22.5 10.1-34.5 0.1-6.5-2.1-12.9-2.1-19.3 0.1-11.5 7.5-22 17.3-27.9 4.9-2.9 10.3-4.8 14.6-8.4 4.4-3.7 7.3-8.8 10.9-13.3 6.4-8.2 16.1-11.2 26.8-11.3z"/>
				<path id="&lt;Path&gt;" class="s21" d="m261.3 577.6c-1.6-11.6 1.1-23.8 7.5-33.6 3.1-4.7 6.9-8.9 9.4-13.9 2.2-4.6 3.2-9.7 4.2-14.7 2.7-14.1 6.7-29.7 19.2-37 4.4-2.6 9.7-3.9 13.6-7.1 2.8-2.3 4.7-5.2 6.9-7.9 8.9-11.1 23.1-21.3 38.2-18.7 7 1.2 13 5.4 19.9 6.4"/>
				<path id="&lt;Path&gt;" class="s21" d="m539.1 481.9c-4.2-7.7-8.7-15.6-16.8-20.5-7.9-4.7-16.1-9-24-13.8-15.5-9.5-27.5-2.7-44.1-1.4-7.6 0.6-15.2 0.3-22.8 0.8-8.7 0.7-17.6 2.6-24 7.6"/>
				<path id="&lt;Path&gt;" class="s16" d="m420.8 466.1c-4.2-23.8-22.7-25.8-34.7-25.4-8.7 0.4-17.1 4.1-23.8 9.7-7.1 6.1-8.3 16.2-9.7 24.9-0.7 4.1-0.9 8.6-2.7 12.5-1.8 4-5.3 7.2-7.8 10.8-8.8 12-1.6 26.1 0 39.1 1.1 8.3 1.7 17.7 0.3 26-1.7 9.7-3.5 19.2-3.6 29.1-0.1 10.2 2.6 20.5 7.1 29.9 4.6 9.8 12.1 18.2 16.1 28.3 2.1 5.2 3.9 11.7 9.3 13.2 4.1 1.1 8.4-1.4 10.7-4.9 2.4-3.5 3.1-7.7 3.8-11.8 1.1-6.2 2.2-12.4 2.6-18.7 0.4-6.2 0.2-12.6 2.3-18.6 2.2-6.5 7-11.9 10.4-18 4.9-8.8 6.8-20 2-28.8-3.2-6-9.3-10.6-10.5-17.3-2.3-12.3 12.8-22 12.8-34.6 0-6.8-4.5-12.6-7.5-18.7-3.2-6.3-4.9-13.4-5-20.4 0-3.4 0.2-9.4 3.8-11 3-1.5 5.3 4.7 5.3 4.7"/>
				<path id="&lt;Path&gt;" class="s17" d="m377.5 662.4c-5.6-14.4-11.2-29.8-8.3-45 0.8-4.4 2.3-8.6 2.2-13.1-0.3-15.7-12.5-24.5-7.9-41.5 1.9-6.9 4.8-13.5 6-20.5 2.4-14.7-7.4-24.9-7.7-38.7-0.1-3 0.2-6 0.9-8.9 0.6-3 1.8-4.4 3.3-6.9 3.1-4.9 5.6-10.4 6.3-16.2 0.5-3.8 0.3-7.6 1.2-11.2 1.6-6.5 7-11.8 13.5-13.3 5.1-1.2 11 0.4 15.3 3.2 5.9 3.7 8.9 9.7 11.4 15.9"/>
			</g>
		</g>
		<g id="&lt;Group&gt;">
			<g id="&lt;Group&gt;">
				<g id="&lt;Group&gt;">
					<path id="&lt;Path&gt;" class="s22" d="m1338.8 865.2c20.8 0 37.6 16.8 37.6 37.5 0 20.7-16.8 37.5-37.6 37.5h-109.4v-75z"/>
					<path id="&lt;Path&gt;" class="s23" d="m1262.4 865.2c20.8 0 37.6 16.8 37.6 37.5 0 20.7-16.8 37.5-37.6 37.5h-183.6v-75z"/>
					<path id="&lt;Path&gt;" class="s18" d="m1259.9 879.1c13.1 0 23.6 10.5 23.6 23.6 0 13-10.5 23.6-23.6 23.6h-181.1v-47.2z"/>
					<path id="&lt;Path&gt;" class="s24" d="m1204.9 912.1h-126.1"/>
					<path id="&lt;Path&gt;" class="s24" d="m1280.6 912.1h-45.5"/>
					<path id="&lt;Path&gt;" class="s24" d="m1282.8 895h-204"/>
					<path id="&lt;Path&gt;" class="s11" d="m1306.8 876.6c7.3 7.9 11.3 18 11.1 28-0.2 10-4.6 20-12.2 27.7"/>
					<path id="&lt;Path&gt;" class="s11" d="m1319 876.6c7.3 7.9 11.3 18 11.1 28-0.2 10-4.6 20-12.2 27.7"/>
				</g>
				<g id="&lt;Group&gt;">
					<path id="&lt;Path&gt;" class="s25" d="m1320.1 805.5c16.5 0 29.8 13.4 29.8 29.9 0 16.5-13.3 29.8-29.8 29.8h-84.1v-59.7z"/>
					<path id="&lt;Path&gt;" class="s26" d="m1262.3 805.5c16.5 0 29.8 13.4 29.8 29.9 0 16.5-13.3 29.8-29.8 29.8h-205.8v-59.7z"/>
					<path id="&lt;Path&gt;" class="s18" d="m1260.3 816.6c10.4 0 18.8 8.4 18.8 18.8 0 10.4-8.4 18.8-18.8 18.8h-203.8v-37.6z"/>
					<path id="&lt;Path&gt;" class="s24" d="m1216.5 842.9h-160"/>
					<path id="&lt;Path&gt;" class="s24" d="m1278.4 842.9h-37.8"/>
					<path id="&lt;Path&gt;" class="s24" d="m1278.4 829.3h-221.9"/>
				</g>
				<g id="&lt;Group&gt;">
					<g id="&lt;Group&gt;">
						<path id="&lt;Path&gt;" class="s27" d="m1234.7 855l-40.8 3.1-18.4-241.5 40.8-3.1z"/>
						<g id="&lt;Group&gt;">
							<path id="&lt;Path&gt;" class="s28" d="m1217.4 628.5l-26 1.9"/>
							<path id="&lt;Path&gt;" class="s28" d="m1218.4 641.7l-16.4 1.2"/>
							<path id="&lt;Path&gt;" class="s28" d="m1219.4 654.9l-16.4 1.3"/>
							<path id="&lt;Path&gt;" class="s28" d="m1220.4 668.1l-16.4 1.3"/>
							<path id="&lt;Path&gt;" class="s28" d="m1221.5 681.4l-26 1.9"/>
							<path id="&lt;Path&gt;" class="s28" d="m1222.5 694.6l-16.5 1.2"/>
							<path id="&lt;Path&gt;" class="s28" d="m1223.5 707.8l-16.5 1.3"/>
							<path id="&lt;Path&gt;" class="s28" d="m1224.5 721l-16.5 1.3"/>
							<path id="&lt;Path&gt;" class="s28" d="m1225.5 734.3l-26 2"/>
							<path id="&lt;Path&gt;" class="s28" d="m1226.5 747.5l-16.5 1.3"/>
							<path id="&lt;Path&gt;" class="s28" d="m1227.5 760.7l-16.4 1.3"/>
							<path id="&lt;Path&gt;" class="s28" d="m1228.5 774l-16.4 1.2"/>
							<path id="&lt;Path&gt;" class="s28" d="m1229.5 787.2l-26 2"/>
							<path id="&lt;Path&gt;" class="s28" d="m1230.5 800.4l-16.4 1.3"/>
							<path id="&lt;Path&gt;" class="s28" d="m1231.5 813.6l-16.4 1.3"/>
							<path id="&lt;Path&gt;" class="s28" d="m1232.6 826.9l-16.5 1.2"/>
							<path id="&lt;Path&gt;" class="s28" d="m1233.6 840.1l-26 2"/>
						</g>
					</g>
					<g id="&lt;Group&gt;">
						<path id="&lt;Path&gt;" class="s22" d="m1211.4 881l-18.1 2.6-26.7-185.4 18.1-2.6z"/>
						<path id="&lt;Path&gt;" class="s25" d="m1209.7 890.9l-11.9 1.7c-1.7 0.3-3.3-0.9-3.5-2.6l-1-6.4 18.1-2.6 1 6.4c0.2 1.7-1 3.3-2.7 3.5z"/>
						<path id="&lt;Path&gt;" class="s29" d="m1193.3 883.6l18.1-2.6"/>
						<path id="&lt;Path&gt;" class="s0" d="m1166.6 698.2l6.7-17.5 11.4 14.9"/>
						<path id="&lt;Path&gt;" class="s30" d="m1173.3 680.7l-3 7.8 8.1-1.2z"/>
					</g>
					<g id="&lt;Group&gt;">
						<path id="&lt;Path&gt;" class="s31" d="m1225 890.7c0 0 8.4 1.1 5.7-5.6-1-2.2-10.4-25.1-12-28.8-1.5-3.8-6.2-9.6-8.4-14.8-2.1-5.1 0.1-7 0.1-7"/>
						<g id="&lt;Group&gt;">
							<path id="&lt;Path&gt;" class="s25" d="m1225.4 911.2c2.9-1.2 4.3-4.5 3.1-7.5l-1.8-4.5 1.5-0.7-95.1-230.4-16.9 7 95.1 230.4 1.6-0.6 1.9 4.5c1.2 2.9 4.5 4.3 7.4 3.1z"/>
							<path id="&lt;Path&gt;" class="s25" d="m1117.1 656.4l-1.1 18.8 17.1-7.1-14.1-12.5c-0.7-0.6-1.8-0.1-1.9 0.8z"/>
						</g>
						<path id="&lt;Path&gt;" class="s32" d="m1228.2 898.5l-16.9 7"/>
						<path id="&lt;Path&gt;" class="s32" d="m1133.1 668.1l-17.1 7.1"/>
						<path id="&lt;Path&gt;" class="s32" d="m1197.9 825.1l-16.8 7.3"/>
					</g>
					<g id="&lt;Group&gt;">
						<path id="&lt;Path&gt;" class="s33" d="m1271.6 685.6c0 0-10.7-7.6-12.8-0.7-0.8 2.3-8 25.9-9.2 29.8-1.2 3.9 0.2 11.8-1.5 17.2-1.6 5.3-6.3 4.9-6.3 4.9"/>
						<g id="&lt;Group&gt;">
							<path id="&lt;Path&gt;" class="s16" d="m1282.1 668.9c-3.7-1.1-7.4 0.4-8.3 3.4l-1.5 4.7-1.9-0.6-73.4 238.3 21.2 6.4 73.3-238.2-1.9-0.6 1.4-4.7c0.9-3-1.3-6.4-4.9-7.5z"/>
							<path id="&lt;Path&gt;" class="s16" d="m1204 934.5l14.4-13.3-21.4-6.5 4.6 19c0.2 1 1.6 1.5 2.4 0.8z"/>
						</g>
						<path id="&lt;Path&gt;" class="s32" d="m1270.4 676.4l21.1 6.5"/>
						<path id="&lt;Path&gt;" class="s32" d="m1197 914.7l21.4 6.5"/>
						<path id="&lt;Path&gt;" class="s32" d="m1247 752.4l21.2 6.1"/>
					</g>
					<path id="&lt;Path&gt;" class="s34" d="m1252.4 941h-87.5l-14.9-173h117.4z"/>
					<path id="&lt;Path&gt;" class="s11" d="m1151.6 786.7h113.9"/>
					<path id="&lt;Path&gt;" class="s11" d="m1163.2 920.9h91.4"/>
				</g>
				<g id="&lt;Group&gt;">
					<path id="&lt;Path&gt;" class="s35" d="m178.6 812.7h181.3v-51.4h-181.3c-14.2 0-25.7 11.5-25.7 25.7 0 14.2 11.5 25.7 25.7 25.7z"/>
					<path id="&lt;Path&gt;" class="s36" d="m204.4 761.3c-14.2 0-25.8 11.5-25.8 25.7 0 14.2 11.6 25.7 25.8 25.7"/>
					<path id="&lt;Path&gt;" class="s36" d="m214.5 761.3c-14.2 0-25.7 11.5-25.7 25.7 0 14.2 11.5 25.7 25.7 25.7"/>
					<path id="&lt;Path&gt;" class="s36" d="m309.5 761.3c-14.2 0-25.7 11.5-25.7 25.7 0 14.2 11.5 25.7 25.7 25.7"/>
					<path id="&lt;Path&gt;" class="s37" d="m337.3 812.7h126v-51.4h-126c-14.2 0-25.7 11.5-25.7 25.7 0 14.2 11.5 25.7 25.7 25.7z"/>
					<path id="&lt;Path&gt;" class="s18" d="m339 770.8h124.3v32.4h-124.3c-8.9 0-16.2-7.2-16.2-16.2 0-8.9 7.3-16.2 16.2-16.2z"/>
					<path id="&lt;Path&gt;" class="s11" d="m357.1 781.3h-33.2"/>
					<path id="&lt;Path&gt;" class="s11" d="m463.3 794.4h-139.4"/>
					<path id="&lt;Path&gt;" class="s38" d="m241.1 791.6c1.3-6.4 7.5-10.6 13.9-9.3 3.6 0.7 6.5 2.9 8.1 5.9 1.1-8-4.2-15.5-12.2-17.1-8.4-1.6-16.4 3.8-18.1 12.1-1.5 7.7 3.1 15.2 10.3 17.6-1.8-2.6-2.6-5.9-2-9.2z"/>
					<g id="&lt;Group&gt;">
						<path id="&lt;Path&gt;" class="s39" d="m220.4 773.1v3.2"/>
						<path id="&lt;Path&gt;" class="s39" d="m220.4 780.1v3.1"/>
						<path id="&lt;Path&gt;" class="s39" d="m225.4 778.2h-3.1"/>
						<path id="&lt;Path&gt;" class="s39" d="m218.5 778.2h-3.2"/>
					</g>
					<g id="&lt;Group&gt;">
						<path id="&lt;Path&gt;" class="s39" d="m265.2 797v3.2"/>
						<path id="&lt;Path&gt;" class="s39" d="m265.2 803.9v3.2"/>
						<path id="&lt;Path&gt;" class="s39" d="m270.2 802.1h-3.2"/>
						<path id="&lt;Path&gt;" class="s39" d="m263.3 802.1h-3.2"/>
					</g>
					<g id="&lt;Group&gt;">
						<path id="&lt;Path&gt;" class="s39" d="m272.1 765.7v3.2"/>
						<path id="&lt;Path&gt;" class="s39" d="m272.1 772.7v3.2"/>
						<path id="&lt;Path&gt;" class="s39" d="m277.2 770.8h-3.2"/>
						<path id="&lt;Path&gt;" class="s39" d="m270.2 770.8h-3.2"/>
					</g>
					<path id="&lt;Path&gt;" class="s11" d="m463.3 781.3h-85.5"/>
				</g>
				<g id="&lt;Group&gt;">
					<path id="&lt;Path&gt;" class="s40" d="m217.3 691.7c-19.2 0-34.8 15.6-34.8 34.8 0 19.2 15.6 34.8 34.8 34.8h154.1v-69.6z"/>
					<path id="&lt;Path&gt;" class="s41" d="m340.8 691.7c-19.2 0-34.8 15.6-34.8 34.8 0 19.2 15.6 34.8 34.8 34.8h170.3v-69.6z"/>
					<path id="&lt;Path&gt;" class="s18" d="m343.1 704.6c-12.1 0-21.9 9.8-21.9 21.9 0 12.1 9.8 21.9 21.9 21.9h168v-43.8z"/>
					<path id="&lt;Path&gt;" class="s42" d="m394.1 735.2h117"/>
					<path id="&lt;Path&gt;" class="s42" d="m323.9 735.2h42.2"/>
					<path id="&lt;Path&gt;" class="s43" d="m453.1 719.1c7.7 12 3 28.3 11.9 39.6 2.2 2.7 5.2 4.7 7.1 7.6 7.5 11.1 6.5 22.6 6.5 22.6l33.4-1.5c0 0 1.4-8-1.8-12.9-3.8-6-10.2-10.1-15.1-15.3-5.4-5.7-6.9-13.7-6.9-21.1 0-5.7-0.9-14.7-5.5-18.8"/>
					<path id="&lt;Path&gt;" class="s42" d="m321.9 719.3h189.2"/>
					<path id="&lt;Path&gt;" class="s42" d="m299 701.4c-12.3 13.3-12.8 41.4 1.4 52.8"/>
					<path id="&lt;Path&gt;" class="s42" d="m208 701.4c-12.3 13.3-12.8 41.4 1.4 52.8"/>
					<path id="&lt;Path&gt;" class="s42" d="m220.1 701.4c-12.3 13.3-12.8 41.4 1.4 52.8"/>
				</g>
				<g id="&lt;Group&gt;">
					<path id="&lt;Path&gt;" class="s44" d="m152.4 890.6h274.6v-77.9h-274.6c-21.5 0-39 17.4-39 38.9 0 21.6 17.5 39 39 39z"/>
					<path id="&lt;Path&gt;" class="s45" d="m246.4 874.3c-5.1-3.8-8.7-12.5-8.7-22.7 0-10.1 3.6-18.8 8.7-22.6v-2.2h-56.5c-8 0-14.6 11.1-14.6 24.8 0 13.7 6.6 24.9 14.6 24.9h56.5z"/>
					<path id="&lt;Path&gt;" class="s44" d="m318.6 890.6h159.6v-77.9h-159.6c-21.5 0-39 17.4-39 38.9 0 21.6 17.5 39 39 39z"/>
					<path id="&lt;Path&gt;" class="s11" d="m299.1 817.9c-11.6 6.8-19.5 19.3-19.5 33.7 0 14.5 7.9 27 19.5 33.8"/>
					<path id="&lt;Path&gt;" class="s11" d="m141.4 817.9c-11.6 6.8-19.5 19.3-19.5 33.7 0 14.5 7.9 27 19.5 33.8"/>
					<path id="&lt;Path&gt;" class="s11" d="m180.1 817.9c-11.6 6.8-19.5 19.3-19.5 33.7 0 14.5 7.9 27 19.5 33.8"/>
					<path id="&lt;Path&gt;" class="s45" d="m147.3 851.6c0-21.5 17.4-38.9 39-38.9h-15.6c-21.6 0-39 17.4-39 38.9 0 21.6 17.4 39 39 39h15.6c-21.6 0-39-17.4-39-39z"/>
					<path id="&lt;Path&gt;" class="s45" d="m265.3 851.6c0-21.5 17.4-38.9 38.9-38.9h-15.6c-21.5 0-38.9 17.4-38.9 38.9 0 21.6 17.4 39 38.9 39h15.6c-21.5 0-38.9-17.4-38.9-39z"/>
					<path id="&lt;Path&gt;" class="s46" d="m321.2 827.1h157v49.1h-157c-13.5 0-24.5-11-24.5-24.6 0-13.5 11-24.5 24.5-24.5z"/>
					<path id="&lt;Path&gt;" class="s47" d="m297.4 857.5h123.7"/>
					<path id="&lt;Path&gt;" class="s47" d="m445 857.5h33.2"/>
					<path id="&lt;Path&gt;" class="s25" d="m370.9 840.3l-26.8 0.3c2.2 11.5 6.4 22.6 12.2 32.8l29.6-0.4c-7.6-9.9-12.5-20.5-15-32.7z"/>
					<path id="&lt;Path&gt;" class="s40" d="m450.3 840.3l-22.5 0.2c1.2 8.9 3.3 17.4 6.3 25.3l23.9-0.3c-3.9-7.6-6.4-15.8-7.7-25.2z"/>
					<path id="&lt;Path&gt;" class="s47" d="m478.2 840.3h-179.1"/>
				</g>
				<g id="&lt;Group&gt;">
					<path id="&lt;Path&gt;" class="s48" d="m461.7 941.8h-180v-51.2h180c14.1 0 25.6 11.5 25.6 25.6 0 14.1-11.5 25.6-25.6 25.6z"/>
					<path id="&lt;Path&gt;" class="s49" d="m352.7 941.8h-180v-51.2h180c14.2 0 25.6 11.5 25.6 25.6 0 14.1-11.4 25.6-25.6 25.6z"/>
					<path id="&lt;Path&gt;" class="s11" d="m352.7 890.6c14.2 0 25.6 11.5 25.6 25.6 0 14.1-11.4 25.6-25.6 25.6"/>
					<path id="&lt;Path&gt;" class="s11" d="m458 890.6c10.2 0 18.4 11.5 18.4 25.6 0 14.1-8.2 25.6-18.4 25.6"/>
					<path id="&lt;Path&gt;" class="s18" d="m351 900.1h-178.3v32.2h178.3c8.9 0 16.1-7.2 16.1-16.1 0-8.9-7.2-16.1-16.1-16.1z"/>
					<path id="&lt;Path&gt;" class="s11" d="m172.7 924.6h192.1"/>
					<path id="&lt;Path&gt;" class="s22" d="m301 911.5c0 0 2.2 14.7-8.8 25.3l-9-4.5-14.5 4.5c11-10.6 8.8-25.3 8.8-25.3"/>
					<path id="&lt;Path&gt;" class="s11" d="m366.4 911.5h-193.7"/>
				</g>
			</g>
			<g id="&lt;Group&gt;">
				<path id="&lt;Path&gt;" class="s50" d="m779.6 272.4l-378.3 669.4h805.4l-190.9-669.4z"/>
				<path id="&lt;Path&gt;" class="s11" d="m897.7 211.6v-172.6"/>
				<path id="&lt;Path&gt;" class="s18" d="m938.1 289.6c0 22.3-18.1 40.4-40.4 40.4-22.3 0-40.4-18.1-40.4-40.4 0-22.3 18.1-40.4 40.4-40.4 22.3 0 40.4 18.1 40.4 40.4z"/>
				<path id="&lt;Path&gt;" class="s44" d="m897.7 194.6l-118.1 77.8h236.2z"/>
				<path id="&lt;Path&gt;" class="s11" d="m796.1 260.1h203.1"/>
			</g>
			<g id="&lt;Group&gt;">
				<g id="&lt;Group&gt;">
					<path id="&lt;Path&gt;" class="s43" d="m848.9 416c30.5-3 61.4 7.6 87 26.6 25.5 18.9 43.4 41.6 57.5 75.2l-39.6 29.2c0 0-6.1-29.9-28.1-63.8-13-20.1-39.8-42.8-66.9-48.7"/>
					<path id="&lt;Path&gt;" class="s43" d="m832.8 414c22.6-20.7 53.6-30.9 85.4-31.2 31.8-0.4 59.8 6.9 91.3 25.3l-14 47.2c0 0-22.9-20.2-60.9-34-22.5-8.2-57.5-10.1-82.7 1.6"/>
					<path id="&lt;Path&gt;" class="s29" d="m832.7 419.4c22.3-14.2 49.5-18.9 75.9-18.8 14.6 0.1 29.3 1.6 43.3 5.7 14.1 4.1 27.5 11 38.2 20.9"/>
					<path id="&lt;Path&gt;" class="s29" d="m858.8 425.8c22.6 1.8 44.6 9.7 63.2 22.5 18.6 12.7 33.8 30.5 43.5 50.9"/>
					<path id="&lt;Path&gt;" class="s51" d="m746.5 559.6l-2.3 45c0 0 8.6 36.2 53.4 36.2 44.8 0 59.1-37.5 59.1-37.5l-7.9-54.7"/>
					<g id="&lt;Group&gt;">
						<path id="&lt;Path&gt;" class="s52" d="m740.9 508.3c-5.4-4.3-12.8-6-19.5-4.5-5.4 1.3-9.7 5.2-11.7 9.7-2 4.6-2 9.7-1 14.5 2.3 10.1 10.1 19.7 21.2 23 2.2 0.7 4.5 1.1 6.8 0.8 5.6-0.8 9.1-5.6 11.9-9.9"/>
						<path id="&lt;Path&gt;" class="s29" d="m715.2 521.1c10.7 3.9 21.2 8.4 31.3 13.6"/>
					</g>
					<g id="&lt;Group&gt;">
						<path id="&lt;Path&gt;" class="s52" d="m856.5 508.3c5.4-4.3 12.8-6 19.5-4.5 5.4 1.3 9.7 5.2 11.7 9.7 2 4.6 2 9.7 1 14.5-2.3 10.1-10.1 19.7-21.2 23-2.2 0.7-4.5 1.1-6.8 0.8-5.6-0.8-9.1-5.6-11.9-9.9"/>
						<path id="&lt;Path&gt;" class="s29" d="m882.2 521.1c-10.7 3.9-21.2 8.4-31.3 13.6"/>
					</g>
					<path id="&lt;Path&gt;" class="s51" d="m732 531.9c2.6 12.8 6 25.8 13.4 36.6 14.6 21.3 42.4 28.9 66.9 24.2 79.9-15.4 65.7-194.5-17.8-193.4-24.9 0.3-46.1 10.5-57.8 33.1-15.8 30.5-11.1 67.2-4.7 99.5z"/>
					<path id="&lt;Path&gt;" class="s35" d="m833.1 402.3q-2.9-1.3-5.9-2.5c-11.6-4.6-24.3-9.5-37-8.2-13.2 1.2-26.1 6-37 13.3-4.7 3.1-9.1 6.6-13.2 10.3-3.2 2.8-6.4 5.8-9.1 9.1-5 6.4-11.6 10.9-16.1 17.5-5.2 7.6-9.7 16-10.1 25.3-0.8 20.9 12 37.4 24.9 52.6-0.2-6.7-0.4-13.5 0.6-20.2 1.3-7.4 5.1-18.5 11.8-22.8 6.7 10.9 18.4 17.2 31.4 14.7 5.9-1.1 11.4-3.9 17-6 7.1-2.7 12.3-2.3 19.6-1.9 5.5 0.4 12.7-0.6 18.2-2.2 6.8-1.9 18.1-12.9 18.1-12.9 0 0 0.1 9.6 4.4 16.9 1.9 3.3 5.4 5.3 7.9 8.2 6.1 6.9 5.9 24.8 5.9 24.8 0 0 7.3-4.6 8.5-6.1 2.1-2.8 3.9-5.8 5.4-9 2.8-6.2 4.7-13.5 4.2-20.4-1.2-15.8-2.5-31-9.8-45.5-8.6-17-22.5-27.4-39.7-35z"/>
					<path id="&lt;Path&gt;" class="s43" d="m869.3 427.2c-9.2 5.6-21.6 10.6-32.8 12.8-34.7 6.9-76.7 0.8-102.7-21.3l-21.3 21.2c31.9 33.7 83.1 37.4 125.6 26.9 13.6-3.4 28.7-11 40-19.7z"/>
					<path id="&lt;Path&gt;" class="s29" d="m791.7 512.3c0.5 9 0.1 18.3-2.3 26.9-1.5 5.3-2.2 14.7 4.1 17.2 4.2 1.7 10.2-0.7 13.4-3.4"/>
					<path id="&lt;Path&gt;" class="s29" d="m797.6 568c3.4-2.2 7-4.3 10.9-5 4-0.8 8.5 0 11.4 2.8"/>
					<path id="&lt;Path&gt;" class="s29" d="m817.2 510.8c2 0.7 4.2 0.2 6-0.6 1.9-0.8 3.6-2.1 5.3-3.2 6-3.7 12.9-5.8 19.9-6"/>
					<path id="&lt;Path&gt;" class="s29" d="m767.3 511.1c-3.5-2.3-7-4.5-10.9-6.1-3.8-1.5-8.1-2.3-12.2-1.3"/>
					<path id="&lt;Path&gt;" class="s53" d="m837.7 532.9c0 3.5-2.2 6.2-4.9 6.2-2.7 0-4.9-2.7-4.9-6.2 0-3.4 2.2-6.2 4.9-6.2 2.7 0 4.9 2.8 4.9 6.2z"/>
					<path id="&lt;Path&gt;" class="s53" d="m764.2 532.9c0 3.5-2.2 6.2-4.8 6.2-2.7 0-4.9-2.7-4.9-6.2 0-3.4 2.2-6.2 4.9-6.2 2.6 0 4.8 2.8 4.8 6.2z"/>
					<g id="&lt;Group&gt;">
						<path id="&lt;Path&gt;" class="s54" d="m784.7 525.6c0 16-11.6 28.9-26 28.9-14.3 0-25.9-12.9-25.9-28.9 0-16 11.6-29 25.9-29 14.4 0 26 13 26 29z"/>
						<path id="&lt;Path&gt;" class="s54" d="m857.7 525.6c0 16-11.6 28.9-25.9 28.9-14.3 0-25.9-12.9-25.9-28.9 0-16 11.6-29 25.9-29 14.3 0 25.9 13 25.9 29z"/>
						<path id="&lt;Path&gt;" class="s54" d="m784.2 519.8h21.7"/>
					</g>
					<path id="&lt;Path&gt;" class="s29" d="m747.9 572.2c7.2 9.7 16.2 18.4 26.9 23.2 27 12.2 59.1-0.5 75.2-26q0.5-0.6 0.9-1.4"/>
					<path id="&lt;Path&gt;" class="s29" d="m867.3 426.7c4.5 5.3 8 11.5 10.2 18.2"/>
					<path id="&lt;Path&gt;" class="s29" d="m854.7 415.5c6.4-0.4 12.7-0.1 19 0.6"/>
					<path id="&lt;Path&gt;" class="s29" d="m717 435.1c32.7 37.2 95.4 37.2 138 19.4 7.4-3.2 14.8-6.7 21.1-11.9"/>
					<path id="&lt;Path&gt;" class="s29" d="m729.9 422.5c0 0 14.4 22.2 66.2 25.1 54.8 3 74.4-17.4 74.4-17.4"/>
				</g>
				<g id="&lt;Group&gt;">
					<path id="&lt;Path&gt;" class="s55" d="m970.1 731.9l-97.7-126.8-70.2 35.8-73.9-35.1-97.9 131.9-13.5 204.1h370.1l-16.9-207"/>
					<path id="&lt;Path&gt;" class="s55" d="m744.2 600.9c0 0-88.5 17.5-115.4 35.6-26.8 18.1-52.3 51-72.5 107.4-20.1 56.4-38.2 134.3-28.8 159.8 9.4 25.5 23.5 38.1 55.7 38.1 32.2 0 60.2 0 60.2 0l35.9-211.2"/>
					<path id="&lt;Path&gt;" class="s29" d="m550.1 835.4c11.2-10.9 26.8-16.8 42.4-18.1 15.7-1.2 31.4 1.8 46.3 6.8"/>
					<path id="&lt;Path&gt;" class="s29" d="m643.4 941.8l33.9-189.4c0.5-6.6-0.9-18.9-3.1-33.3-2-13.1-9.1-30.2-16-41.5"/>
					<path id="&lt;Path&gt;" class="s55" d="m857.8 600.9c0 0 88.5 17.5 115.4 35.6 26.8 18.1 64.8 68.7 90 123 26.2 56.5 47.2 114.3 37.8 139.8-9.4 25.5-30.3 42.5-62.5 42.5-32.2 0-58.8-18-58.8-18l-38.9-200.4"/>
					<path id="&lt;Path&gt;" class="s29" d="m979.7 923.8q-9.2-47.6-18.5-95.2-6.6-34-13.2-68c-4.5-22.9-9-43.9 0.9-66.5q1.6-3.7 3.6-7.1"/>
					<path id="&lt;Path&gt;" class="s55" d="m745.1 587l-16.8 18.8c0 0 15.9 53.8 53.9 64.7l20-24.6 22.7 24.2c28.6-8 47.5-65 47.5-65l-18-18.1c0 0-30.6 42.7-53.9 42.7-23.3 0-55.4-42.7-55.4-42.7z"/>
					<path id="&lt;Path&gt;" class="s29" d="m728.3 605.8c0 0 15.9 53.8 53.9 64.7l20-24.6 22.7 24.2c28.6-8 47.5-65 47.5-65"/>
					<path id="&lt;Path&gt;" class="s29" d="m974 838.1q6.8-2.2 13.5-4.3c9.2-3.1 18.5-6.1 28.1-7.5 23.1-3.3 47.6 3.6 65.6 18.5"/>
					<path id="&lt;Path&gt;" class="s29" d="m937.2 759.5h-68.4v-9.8h68.4z"/>
					<path id="&lt;Path&gt;" class="s29" d="m802.2 645.9v295.9"/>
					<path id="&lt;Path&gt;" class="s29" d="m1038.8 826.3c14.5-1.5 33.1 1.3 45.2 4.4"/>
				</g>
				<g id="&lt;Group&gt;">
					<path id="&lt;Path&gt;" class="s56" d="m615.2 891.7c0 0 28 4.5 41.2 4.6 7.2 0 14.4-0.6 21.3-2.1 7-1.6 12.4-4.6 18.6-7.4 6.5-3.1 13-5.1 20.4-6.4 4.5-0.8 11.6-3.3 13.5-6.9 2-4-2-8.7-6.7-11-15.3-7.4-36.4 0-51.5-7.7"/>
					<g id="&lt;Group&gt;">
						<path id="&lt;Path&gt;" class="s22" d="m647.8 744.3l11.4-5.1 72.9 141.1-11.4 5.1z"/>
						<path id="&lt;Path&gt;" class="s25" d="m647.1 735.7l5.4-2.4c1.6-0.7 3.6 0 4.4 1.5l2.3 4.4-11.4 5.1-2.3-4.4c-0.8-1.6-0.1-3.4 1.6-4.2z"/>
						<path id="&lt;Path&gt;" class="s29" d="m659.2 739.2l-11.4 5.1"/>
						<path id="&lt;Path&gt;" class="s0" d="m732.1 880.3l0.7 14.9-12.1-9.8"/>
						<path id="&lt;Path&gt;" class="s30" d="m732.8 895.2l-0.3-6.6-5.1 2.2z"/>
					</g>
					<path id="&lt;Path&gt;" class="s51" d="m602 828.5q9.8-8.4 20.1-16.3c5.4-4.2 13.8-6 20.7-6.4 7.9-0.3 15.7 1.1 23.4 2.9 5.9 1.4 11.2 4.1 17 6 10.2 3.3 14.5 7.7 21 15.6 3.7 4.6 7.5 12.6 12.7 17 2.6 2.1 6.1 6.6 3.3 10.4-1.7 2.2-5.6 4.7-8.5 5.1-13.1 2.2-21.7-6.5-31.5-13.2-2.6-1.8-5.2-3.6-8-5-9.2-4.6-20.5-5.1-30.6-2.5"/>
					<path id="&lt;Path&gt;" class="s51" d="m605.3 910c22.8 0 48.7 0 52.2 0 3.5 0 10.8-2.5 12.5-4.1 5.5-5.1 5.5-8.3 4.2-10.4 5.5-0.1 10.5-3.6 13.1-8.3 2.6-4.6 1.6-9-2.2-12.5 6.6 0 11.1-8.4 10.1-15.5-1-7.2-5.8-12.9-10.7-17.7-18.1-17.8-33-40.8-58-29.7-9.8 4.3-33 23.5-41.4 29.8-9.1 6.9-16.8 16.5-17.3 27.4-0.9 18.7 16.2 41 37.5 41z"/>
					<path id="&lt;Path&gt;" class="s29" d="m674.2 896.1q-2.2-2.1-4.8-3.8-2-1.5-4.3-2.5c-6.1-3-13.1-3.7-20-4.4"/>
					<path id="&lt;Path&gt;" class="s29" d="m686.6 875.3c-2-1.1-3.5-2.8-5.3-4.2-2.8-2.1-7-4.6-10.4-5.6q-4.2-1.3-8.4-2.6c-5.1-1.5-10.4-3-15.7-2.6"/>
					<path id="&lt;Path&gt;" class="s29" d="m647.8 828.5c6 0.4 12.1 0.9 17.6 3.1 3.2 1.3 6 3.1 8.8 5 4.5 3.1 8.7 6.3 12.4 10 3.4 3.4 7.1 5.9 8.2 10.7 0.4 1.7 0.6 3 0.8 4.8"/>
					<path id="&lt;Path&gt;" class="s29" d="m712 842q-3.4 1.3-6.8 2.5c-1.1 0.4-2.3 0.9-3.1 1.7-0.7 0.9-0.9 2.1-0.8 3.2 0.2 3 2.8 5.8 5.9 6 1 0 2-0.2 2.9-0.4 3.3-0.9 6.4-2.5 9.1-4.6"/>
					<path id="&lt;Path&gt;" class="s29" d="m591.9 906.7c-7.9-5.1-12.7-14.1-12.3-23"/>
					<path id="&lt;Path&gt;" class="s29" d="m583.4 850.2c6.7-9.5 21-24.6 30.3-32"/>
				</g>
				<g id="&lt;Group&gt;">
					<path id="&lt;Path&gt;" class="s18" d="m871 895.3c-52.5 3.1-62.3 30.7-62.3 30.7 0 0-9.8-27.6-62.2-30.7-33.6-2-182.1 17.6-182.1 17.6v23.7h488.7v-23.7c0 0-148.5-19.6-182.1-17.6z"/>
					<path id="&lt;Path&gt;" class="s57" d="m1053.1 918.8c0 0-148.5-13-182.1-11.6-52.5 2-62.3 20.1-62.3 20.1 0 0-9.8-18.1-62.2-20.1-33.6-1.4-182.1 11.6-182.1 11.6"/>
					<path id="&lt;Path&gt;" class="s57" d="m1053.1 923.3c0 0-148.5-7.1-182.1-6.4-52.5 1.1-62.3 13.7-62.3 13.7 0 0-9.8-12.6-62.2-13.7-33.6-0.7-182.1 6.4-182.1 6.4"/>
					<path id="&lt;Path&gt;" class="s44" d="m1061.7 941h-506v-10.4h506z"/>
				</g>
				<g id="&lt;Group&gt;">
					<path id="&lt;Path&gt;" class="s51" d="m944.4 836.5c-6.6 6.3-13 12.6-17.4 20.8-5.1 9.4-14.2 30.5-5.8 40.9 3.9 4.7 14.7 3.6 17.9-1.6 1.1 5.9 5.2 9.9 10.8 10.5 5.7 0.7 11.8-1.8 16.3-5.3 2.8 4.4 7.9 4.4 12.8 5.3 7.5 1.4 17.2-3.9 17.2-3.9 4.8 2.8 9.8 4.4 15 6.1 7.4 2.3 19.2-7.7 20.3-8.2 1.2-0.6 8.5-0.4 12.7-1.8 10.2-11 8.9-17.7 7.3-25.9-1.7-8.1-5.4-15.7-10-22.7-4.2-6.5-9.3-12.5-15.8-16.8-7.2-4.6-14.5-4.3-22.2-6.7-8.6-2.7-17.3-3.7-26.2-4.9-11.4-1.6-22.9-2.3-34.2-0.2-14.5 2.8-25.3 12.8-33.5 25.2-8.3 12.8-13.2 28.7-23.4 40-2.7 2.8-6.1 5.6-5.5 10.2 0.4 2.9 2.4 5.3 4.9 6.5 9.7 4.5 20.1-0.9 26.9-8.6 6-6.9 9.9-15.6 15-23.3 5-7.7 11.2-14.5 18.2-20.2"/>
					<path id="&lt;Path&gt;" class="s29" d="m938.3 899.3c5.1-17.4 15.3-30.4 26.6-40"/>
					<path id="&lt;Path&gt;" class="s29" d="m966.2 904.7c0 0 2.5-16 17.9-26.5"/>
					<path id="&lt;Path&gt;" class="s29" d="m918.2 889c-0.9-8.9 0.9-18 4.4-26.2 3.9-9.3 10.4-17.3 18.3-23.3"/>
					<path id="&lt;Path&gt;" class="s29" d="m882.7 891.1c1.9 2.3 4.1 4.7 6.8 5.7 3.4 1.3 7.3-1.2 9.1-4.2 1.4-2.3 1.3-4.6-0.9-6.2q-3.3-2.5-6.7-5"/>
					<path id="&lt;Path&gt;" class="s29" d="m996.2 904.1c4.9-2.2 9.1-5.4 14-7.5"/>
					<path id="&lt;Path&gt;" class="s29" d="m1031.7 901.3c5.9-4.4 10.4-10.7 12.5-17.8"/>
				</g>
			</g>
			<path id="&lt;Path&gt;" class="s29" d="m110.2 941.8h1279.6"/>
			<g id="&lt;Group&gt;">
				<g id="&lt;Group&gt;">
					<path id="&lt;Path&gt;" class="s32" d="m1023.7 619.6v6.7"/>
					<path id="&lt;Path&gt;" class="s32" d="m1023.7 634.5v6.8"/>
					<path id="&lt;Path&gt;" class="s32" d="m1034.5 630.4h-6.7"/>
					<path id="&lt;Path&gt;" class="s32" d="m1019.6 630.4h-6.8"/>
				</g>
				<g id="&lt;Group&gt;">
					<path id="&lt;Path&gt;" class="s32" d="m964.2 318.1v6.8"/>
					<path id="&lt;Path&gt;" class="s32" d="m964.2 333.1v6.7"/>
					<path id="&lt;Path&gt;" class="s32" d="m975.1 329h-6.8"/>
					<path id="&lt;Path&gt;" class="s32" d="m960.1 329h-6.7"/>
				</g>
				<g id="&lt;Group&gt;">
					<path id="&lt;Path&gt;" class="s32" d="m766.5 355.8v6.7"/>
					<path id="&lt;Path&gt;" class="s32" d="m766.5 370.7v6.8"/>
					<path id="&lt;Path&gt;" class="s32" d="m777.4 366.6h-6.8"/>
					<path id="&lt;Path&gt;" class="s32" d="m762.4 366.6h-6.7"/>
				</g>
				<g id="&lt;Group&gt;">
					<path id="&lt;Path&gt;" class="s32" d="m541.4 553.6v6.8"/>
					<path id="&lt;Path&gt;" class="s32" d="m541.4 568.6v6.7"/>
					<path id="&lt;Path&gt;" class="s32" d="m552.3 564.5h-6.8"/>
					<path id="&lt;Path&gt;" class="s32" d="m537.3 564.5h-6.7"/>
				</g>
				<path id="&lt;Path&gt;" class="s58" d="m1030.2 534.7c0 3.6-2.9 6.5-6.5 6.5-3.6 0-6.5-2.9-6.5-6.5 0-3.6 2.9-6.5 6.5-6.5 3.6 0 6.5 2.9 6.5 6.5z"/>
				<path id="&lt;Path&gt;" class="s58" d="m1056.2 484c0 7.2-5.8 13-12.9 13-7.2 0-13-5.8-13-13 0-7.2 5.8-13 13-13 7.1 0 12.9 5.8 12.9 13z"/>
				<path id="&lt;Path&gt;" class="s58" d="m623.3 425.4c0 3.5-2.9 6.4-6.4 6.4-3.6 0-6.5-2.9-6.5-6.4 0-3.6 2.9-6.5 6.5-6.5 3.5 0 6.4 2.9 6.4 6.5z"/>
				<path id="&lt;Path&gt;" class="s58" d="m535.8 654.9c0 3.6-2.9 6.5-6.5 6.5-3.6 0-6.5-2.9-6.5-6.5 0-3.6 2.9-6.5 6.5-6.5 3.6 0 6.5 2.9 6.5 6.5z"/>
				<path id="&lt;Path&gt;" class="s58" d="m682.1 553c0 6.4-5.1 11.5-11.5 11.5-6.3 0-11.4-5.1-11.4-11.5 0-6.3 5.1-11.4 11.4-11.4 6.4 0 11.5 5.1 11.5 11.4z"/>
				<path id="&lt;Path&gt;" class="s58" d="m821.1 336.9c0 3.6-2.9 6.5-6.5 6.5-3.6 0-6.5-2.9-6.5-6.5 0-3.5 2.9-6.4 6.5-6.4 3.6 0 6.5 2.9 6.5 6.4z"/>
			</g>
		</g>
	</g>
</svg>