<svg xmlns="http://www.w3.org/2000/svg" xmlns:xlink="http://www.w3.org/1999/xlink" version="1.2" viewBox="0 0 1000 1000" width="1000" height="1000">
	<style>
		.s0 { fill: #a5b9cf } 
		.s1 { fill: #c3d2de } 
		.s2 { fill: #ffffff } 
		.s3 { fill: none;stroke: #ffffff;stroke-linecap: round;stroke-linejoin: round;stroke-width: 2;stroke-dasharray: 16,48,16,48,16,48 } 
		.s4 { fill: #1ca33a } 
		.s5 { fill: none;stroke: #126943;stroke-linecap: round;stroke-miterlimit:10;stroke-width: 2 } 
		.s6 { fill: #1f918c } 
		.s7 { fill: none;stroke: #166673;stroke-linecap: round;stroke-miterlimit:10;stroke-width: 2 } 
		.s8 { fill: #5e96d6 } 
		.s9 { fill: #f7aa36 } 
		.s10 { fill: #feede3 } 
		.s11 { fill: #dbb9ab } 
		.s12 { fill: #ffbf46 } 
		.s13 { fill: #3878e8 } 
		.s14 { fill: #3c97fe } 
		.s15 { fill: #c42d97 } 
		.s16 { fill: #f74db3 } 
		.s17 { fill: #ea33aa } 
		.s18 { fill: #0d409e } 
		.s19 { fill: #ba68d6 } 
		.s20 { fill: #a25ed6 } 
		.s21 { fill: #0750b5 } 
		.s22 { fill: #14133b } 
		.s23 { fill: #515d82 } 
		.s24 { fill: #065cbd } 
		.s25 { fill: #ef9281 } 
		.s26 { fill: #ffbd9a } 
		.s27 { fill: #2c245c } 
		.s28 { fill: none;stroke: #c44547;stroke-linecap: round;stroke-linejoin: round;stroke-width: 4 } 
		.s29 { fill: #f7a98b } 
		.s30 { fill: none;stroke: #ed8c74;stroke-linecap: round;stroke-miterlimit:10;stroke-width: 2 } 
		.s31 { fill: #e1edf2 } 
		.s32 { fill: #ffdb80 } 
		.s33 { fill: #eb8328 } 
		.s34 { fill: #f0942b } 
	</style>
	<g id="OBJECTS">
		<g id="&lt;Group&gt;">
			<g id="&lt;Group&gt;">
				<g id="&lt;Group&gt;">
					<g id="&lt;Group&gt;">
						<g id="&lt;Group&gt;">
							<g id="&lt;Group&gt;">
								<path id="&lt;Path&gt;" class="s0" d="m762.2 377.8c-1.2 7-2.5 14-3.2 21.3 17.5-10.7 34.4-22.2 50.7-34.5-13.4 0-26.8-2-39.6-5.9-2.5 6.2-6.6 11.9-7.9 19.1z"/>
								<path id="&lt;Path&gt;" class="s1" d="m757.4 355.5c-0.1 13.4 0.4 29.7 0.8 43.3 6.1-10.2 11.8-23.5 17.9-33.9 28.3-7.3 61.3-22.3 85.7-38.3-33.5 5.5-72.2 17.9-104.4 28.9z"/>
								<path id="&lt;Path&gt;" class="s2" d="m775.7 365c28.7-13.3 57.8-26.4 87.1-38.8-12.2 17.6-25.2 34.6-37.7 51.6-17-2.8-33.8-6.8-49.4-12.8z"/>
								<path id="&lt;Path&gt;" class="s2" d="m862.6 326.2c-34.7 13.5-69.4 25.5-105.1 35.3-14.4-2.8-27.7-6.9-41.5-13.1 48.3-9.4 97.1-16.6 146.6-22.2z"/>
							</g>
							<path id="&lt;Path&gt;" class="s3" d="m749.1 406.7c-26.6 21.8-55.8 41.2-88.4 52.3-32.7 11-69 13.3-101.4 1.5-36.3-13.3-64.1-42.5-95.4-65.2-31.9-23.1-68.9-40-108.1-44-39.1-4-80.4 5.8-110.7 30.8-47.6 39.3-60.6 110.1-43.6 169.5 18.1 63.4 67.5 117 129.3 140.3"/>
						</g>
						<g id="&lt;Group&gt;">
							<g id="&lt;Group&gt;">
								<g id="&lt;Group&gt;">
									<g id="&lt;Group&gt;">
										<g id="&lt;Group&gt;">
											<path id="&lt;Path&gt;" class="s4" d="m360.6 473.6c0.8-10.4 0.9-21.6-4.4-30.7-5.3-9.1-15.5-14.5-25.9-16.6-10.3-2.1-21-1.3-31.6-0.5 5 22.8 23 42.2 61.9 47.8z"/>
											<path id="&lt;Path&gt;" class="s4" d="m378.3 495.5c-13.7-17.7-16.2-43.4-5.9-63.3 3.3-6.5 8.8-12.9 16.1-13.2 14 24.2 11.6 57-10.2 76.5z"/>
											<path id="&lt;Path&gt;" class="s4" d="m388 508.5c-9.9-9.2-23.1-14.8-36.7-15.3-13.5-0.5-27.2 4-37.7 12.6 16.9 14.4 41.8 18.9 74.4 2.7z"/>
											<path id="&lt;Path&gt;" class="s4" d="m406.8 537.8c-7.2-12.5-9.1-28-5.2-41.9 4-13.9 13.7-26 26.4-32.9 10.9 24.2 5.5 54.8-21.2 74.8z"/>
											<path id="&lt;Path&gt;" class="s4" d="m416.2 559.2c-6.7-13.2-19.9-22.9-34.4-25.3-14.6-2.5-30.2 2.4-40.8 12.7 17.3 12.8 40.1 18 75.2 12.6z"/>
											<path id="&lt;Path&gt;" class="s4" d="m427.5 583.9c-0.8-13.3 0.7-27.1 6.8-39 6.1-11.9 17.3-21.6 30.5-23.6 3.4 13.1 2 27.4-3.9 39.6-5.9 12.2-16.2 22.2-33.4 23z"/>
											<path id="&lt;Path&gt;" class="s4" d="m438.2 609.2c-6.9-12.6-20.2-21.4-34.4-22.9-14.2-1.6-29.1 4.1-38.6 14.8 17.8 13.8 42 19 73 8.1z"/>
										</g>
										<path id="&lt;Path&gt;" class="s5" d="m347.6 459.5c66.4 72.1 107.3 167.1 114.2 264.8"/>
									</g>
									<g id="&lt;Group&gt;">
										<g id="&lt;Group&gt;">
											<path id="&lt;Path&gt;" class="s4" d="m237.6 629.2c-9.6-13.9-25.3-23.5-42.1-25.7-16.7-2.2-34.4 2.9-47.3 13.7 18.8 19 48.9 25.9 89.4 12z"/>
											<path id="&lt;Path&gt;" class="s4" d="m265.3 642.5c-11.8-8.5-20.3-21.4-23.4-35.6-3.1-14.2-0.8-29.5 6.3-42.2 10 10.1 19.5 21 24.8 34.2 5.2 13.2 5.5 28.9-7.7 43.6z"/>
											<path id="&lt;Path&gt;" class="s4" d="m252.4 635.8c-13.6-1.9-27.9 1.4-39.3 9.1-11.3 7.7-19.7 19.7-23 33 13.1 0.8 26.5-1.5 37.9-8 11.5-6.4 20.6-17.2 24.4-34.1z"/>
											<path id="&lt;Path&gt;" class="s4" d="m305.2 664.8c-10.6-11-16.6-26.3-16.2-41.5 0.4-15.3 7.2-30.2 18.4-40.6 17.1 23.6 20.6 56.5-2.2 82.1z"/>
											<path id="&lt;Path&gt;" class="s4" d="m295.5 658.5c-7.3-5.7-17.7-6.6-26.5-3.7-8.8 3-16.2 9.4-21.7 16.8-5.6 7.5-9.5 16-13.2 24.6 25 0.9 50-13.3 61.4-37.7z"/>
											<path id="&lt;Path&gt;" class="s4" d="m335.2 685c-7.7-12.3-10.2-27.7-6.9-41.9 3.4-14.1 12.6-26.7 25-34.2 6.9 12.5 9.4 27.4 7.1 41.5-2.4 14.1-9.5 27.4-25.2 34.6z"/>
											<path id="&lt;Path&gt;" class="s4" d="m361.1 710.5c-9.6-9.2-24.3-11.8-37.3-9-13.1 2.9-24.6 10.6-34.3 19.7 21.2 13 50.7 10.4 71.6-10.7z"/>
										</g>
										<path id="&lt;Path&gt;" class="s5" d="m382.7 734.9c-43.2-56.7-106.9-97.4-176.5-112.8"/>
									</g>
									<g id="&lt;Group&gt;">
										<path id="&lt;Path&gt;" class="s6" d="m427.7 660.3c0.5-40.5-16.3-80.8-45.4-109-29-28.2-69.8-43.9-112.7-41.9-2.7 41.4 14.2 83.6 44.7 111.8 30.5 28.1 73.9 41.6 113.4 39.1z"/>
										<g id="&lt;Group&gt;">
											<path id="&lt;Path&gt;" class="s7" d="m289.8 525.9c54.4 39 99.8 90.6 131.4 149.7"/>
											<path id="&lt;Path&gt;" class="s7" d="m334.1 527.4q-0.6 16.8-1.2 33.5"/>
											<path id="&lt;Path&gt;" class="s7" d="m384.1 560.2c-1.1 15.1-4.4 30-9.8 44.1"/>
											<path id="&lt;Path&gt;" class="s7" d="m416.1 616.5c-1.9 10-6.7 19.4-13.6 26.9"/>
											<path id="&lt;Path&gt;" class="s7" d="m284.3 547c11.1 3.8 23.1 4.9 34.7 3.2"/>
											<path id="&lt;Path&gt;" class="s7" d="m307 599.4c16.9-1.1 33.6-5.5 49-12.9"/>
											<path id="&lt;Path&gt;" class="s7" d="m344.2 639.3c16.8 0.4 32.3-3.8 46.9-12"/>
										</g>
									</g>
								</g>
								<g id="&lt;Group&gt;">
									<g id="&lt;Group&gt;">
										<path id="&lt;Path&gt;" class="s6" d="m611.2 609.7c-25.2-31.8-36.6-74-30.9-114 5.7-40.1 28.4-77.5 63.6-102.1 27.4 31.1 39.9 74.8 33 115.7-6.9 40.9-33 78.1-65.7 100.4z"/>
										<g id="&lt;Group&gt;">
											<path id="&lt;Path&gt;" class="s7" d="m637.9 418.9c-19.1 64.2-23.4 132.8-12.3 198.8"/>
											<path id="&lt;Path&gt;" class="s7" d="m603.8 447.3q10.7 12.9 21.4 25.8"/>
											<path id="&lt;Path&gt;" class="s7" d="m584.4 503.8c10.1 11.2 21.8 21 34.7 28.9"/>
											<path id="&lt;Path&gt;" class="s7" d="m593.6 567.9c7.6 6.7 17.1 11.3 27.1 12.9"/>
											<path id="&lt;Path&gt;" class="s7" d="m655.2 432.3c-6.5 9.8-15.3 18-25.5 23.7"/>
											<path id="&lt;Path&gt;" class="s7" d="m669.3 487.6c-14.1 9.5-30 16.2-46.6 19.8"/>
											<path id="&lt;Path&gt;" class="s7" d="m664.3 541.9c-13 10.6-27.8 16.8-44.4 19.2"/>
										</g>
									</g>
									<g id="&lt;Group&gt;">
										<g id="&lt;Group&gt;">
											<path id="&lt;Path&gt;" class="s4" d="m754.3 492.1c1.5-14.5 9.7-28.2 21.8-36.5 12-8.3 27.7-11.1 41.9-7.4-10.5 24.3-35.8 41.6-63.7 43.9z"/>
											<path id="&lt;Path&gt;" class="s4" d="m744.3 505.1c11.6-19.7 10.1-46.2-3.5-64.6-8.8 8.3-14.2 20.1-14.7 32.1-0.6 12.1 3.7 24.3 18.2 32.5z"/>
											<path id="&lt;Path&gt;" class="s4" d="m731.1 525.5c7.6-11.2 20.2-19 33.7-20.6 13.5-1.7 27.6 2.8 37.7 11.9-19.1 16.5-47.7 20.9-71.4 8.7z"/>
											<path id="&lt;Path&gt;" class="s4" d="m717.7 543.7c7-12.1 8.6-27.1 4.6-40.5-4.1-13.3-13.9-24.8-26.5-31-8.2 23.8-1.7 52.1 21.9 71.5z"/>
											<path id="&lt;Path&gt;" class="s4" d="m709.5 560.5c9.3-10.9 23.1-17.7 37.4-18.5 14.2-0.8 28.7 4.5 39.1 14.3-21.6 15.7-51.7 18.7-76.5 4.2z"/>
											<path id="&lt;Path&gt;" class="s4" d="m699.3 578.2c4.1-13.4 2-28.6-5.4-40.5-7.4-11.9-20.1-20.4-34-22.7-2.6 24.8 10.8 50.5 39.4 63.2z"/>
											<path id="&lt;Path&gt;" class="s4" d="m690.9 602c7.7-11.5 20.5-19.5 34.2-21.4 13.7-1.9 28.2 2.3 38.7 11.4-19.6 15.5-46.7 21.2-72.9 10z"/>
											<path id="&lt;Path&gt;" class="s4" d="m684.8 621.2c1.9-12.7-1.5-26.1-9.1-36.4-7.7-10.3-19.5-17.4-32.2-19.3-1.2 12 1.8 24.4 8.3 34.6 6.6 10.1 16.7 17.9 33 21.1z"/>
											<path id="&lt;Path&gt;" class="s4" d="m677.2 646.3c6.2-11.3 16.8-20 29.1-23.9 12.2-3.9 25.9-2.9 37.5 2.8-16.3 17.1-41.1 25.7-66.6 21.1z"/>
										</g>
										<path id="&lt;Path&gt;" class="s5" d="m762.9 483.2c-51.5 56.4-84.2 129.7-92 205.7"/>
									</g>
									<g id="&lt;Group&gt;">
										<path id="&lt;Path&gt;" class="s6" d="m685 698.3c9.8-39.3 36.2-74.1 71.4-94.1 35.2-19.9 78.6-24.8 119.6-12-7.8 40.7-34.8 77.3-71.4 96.8-36.5 19.5-82 21.6-119.6 9.3z"/>
										<g id="&lt;Group&gt;">
											<path id="&lt;Path&gt;" class="s7" d="m852.4 603c-62.5 24-119.4 62.5-164.9 111.7"/>
											<path id="&lt;Path&gt;" class="s7" d="m809.1 593.3q-3.7 16.3-7.3 32.7"/>
											<path id="&lt;Path&gt;" class="s7" d="m752.5 612.4c-2.7 14.9-3.3 30.1-1.7 45.1"/>
											<path id="&lt;Path&gt;" class="s7" d="m707.3 658.9c-0.7 10.1 1.6 20.4 6.4 29.4"/>
											<path id="&lt;Path&gt;" class="s7" d="m852.4 624.8c-11.7 0.9-23.7-1.1-34.5-5.7"/>
											<path id="&lt;Path&gt;" class="s7" d="m817.2 669.8c-16.1-5.4-31.2-13.9-44.2-24.8"/>
											<path id="&lt;Path&gt;" class="s7" d="m771.1 699c-16.3-3.8-30.3-11.7-42.4-23.4"/>
										</g>
									</g>
								</g>
							</g>
							<g id="&lt;Group&gt;">
								<path id="&lt;Path&gt;" class="s8" d="m260.9 819.2c91.1 0 164.9 14.2 164.9 31.7 0 17.5-73.8 31.7-164.9 31.7-91.1 0-164.9-14.2-164.9-31.7 0-17.5 73.8-31.7 164.9-31.7z"/>
								<g id="&lt;Group&gt;">
									<g id="&lt;Group&gt;">
										<path id="&lt;Path&gt;" class="s9" d="m243.5 864.8c3 2.8 11.9 2.7 17.6 5.5 39.5-15.9 73-29 110.8-44.8 4.2-12.9 6.3-27 2.7-40.1-3.7-13.1-13.8-24.9-26-29.3q-57.9 16.1-115.7 32.2c2.9 23.7 5.8 47.4 10.6 76.5z"/>
										<g id="&lt;Group&gt;">
											<path id="&lt;Path&gt;" class="s10" d="m126 859.5c10.3-17.5 10.8-40 3.3-57.3 39.7-0.3 79.3 1.7 118.7 6 6.2 0.7 12.5 1.5 17.9 4.3 12.6 6.5 16.8 23.1 10.9 35.5-5.9 12.3-19.8 20.2-32.7 21.3-39.6-6.1-79.8-9-118.1-9.8z"/>
											<path id="&lt;Path&gt;" class="s11" d="m272.4 819.9q-59.4-0.3-118.8-0.6 59.4 2.8 118.8 5.6c-0.7-1.4-1.3-2.9 0-5z"/>
											<path id="&lt;Path&gt;" class="s11" d="m279.4 831.2q-46.4-0.9-92.8-1.8 45.9 3 91.9 6c0-1.4 0-2.8 0.9-4.2z"/>
											<path id="&lt;Path&gt;" class="s11" d="m279.1 841.9q-35.8-0.9-71.6-1.9c23.4 1.2 46.7 3.1 70 5.5 0-1.2 0.1-2.4 1.6-3.6z"/>
											<path id="&lt;Path&gt;" class="s11" d="m272.7 851.7q-61.8-1.8-123.6-3.6 60.4 3.7 120.8 7.5c0.5-1.1 1-2.2 2.8-3.9z"/>
											<path id="&lt;Path&gt;" class="s12" d="m121.4 795.7c43.8-0.7 87.7 1.1 132.1 4.7 6.4 0.5 12.6 2.9 17.2 7.1 9 8.2 14.1 20.4 12.7 32.2-1.3 11.8-9.1 22.7-19.5 29.1-5.2 3.2-11.5 4.6-17.7 4.1-41.8-3-83.5-6-125.5-9.4 0-3.1 0-6.2 1.9-10.3 38.9 2.9 77.8 5.8 118.4 8.7 14.2 1 27.6-7.8 30.4-20.9q0.4-1.9 0.5-3.8 0.1-1.9-0.1-3.8c-1.3-13.4-13.6-23.4-27.9-23.8l-121.6-3.4c-0.1-2.9-0.1-5.8-0.9-10.5z"/>
										</g>
									</g>
									<g id="&lt;Group&gt;">
										<g id="&lt;Group&gt;">
											<path id="&lt;Path&gt;" class="s13" d="m358.6 745.9c-1.2 6.7-3.7 13.1-6.2 19.4-21 8.2-42.6 15.9-64.5 23.1q-4.1 1.3-8.3 2.6-3.6 1.2-7.3 2.3-4 1.3-8.1 2.5c-10.1 3.1-20.2 6.1-30.4 8.9-3-4.2-5-8-7-11.9 5.1-23.2 5.2-42.1 1.2-60.2q56.8-10.1 113.6-20.3c6.5 2.4 12.2 7.4 15.1 13.6 2.9 6.1 3.1 13.3 1.9 20z"/>
											<path id="&lt;Path&gt;" class="s12" d="m279.7 765.2c0 9.8-2.6 19.6-7.4 28.1q-4 1.3-8.1 2.5c4.9-9.5 7.8-19.9 7.7-30.3-0.3-12.5-5.1-24.9-13.3-34.3 4-0.3 6.2-0.7 8.4-1.2 8.2 9.7 12.7 22.4 12.7 35.2z"/>
											<path id="&lt;Path&gt;" class="s12" d="m294.2 762.2c0 9-2.2 18.1-6.3 26.2q-4.1 1.3-8.3 2.6c4.3-9 7-18.8 6.8-28.5-0.3-12.5-5.1-24.9-13.3-34.3 4-0.3 6.2-0.7 8.4-1.2 8.2 9.7 12.7 22.4 12.7 35.2z"/>
										</g>
										<g id="&lt;Group&gt;">
											<path id="&lt;Path&gt;" class="s10" d="m114.9 792.6c9.7-15.8 10.1-35.9 3.1-51.5 36.9-0.3 73.9 1.5 110.7 5.4 5.7 0.6 11.6 1.3 16.6 3.8 11.8 5.8 15.7 20.8 10.2 31.9-5.5 11.1-18.5 18.1-30.5 19.1-36.9-5.4-74.4-8.1-110.1-8.7z"/>
											<g id="&lt;Group&gt;">
												<path id="&lt;Path&gt;" class="s11" d="m251.4 757q-40.6-0.3-81.2-0.5 40.6 2.5 81.2 5c-0.5-1.3-0.9-2.6 0-4.5z"/>
												<path id="&lt;Path&gt;" class="s11" d="m258 767.2q-55.3-0.9-110.5-1.7 54.7 2.7 109.3 5.4c0-1.2 0-2.5 1.2-3.7z"/>
												<path id="&lt;Path&gt;" class="s11" d="m257.7 776.8q-41.5-0.9-83-1.7 40.6 1.6 81.1 4.9c0.1-1.1 0.2-2.2 1.9-3.2z"/>
												<path id="&lt;Path&gt;" class="s11" d="m251.7 785.6q-52.8-1.7-105.7-3.3 51.7 3.4 103.3 6.7c0.5-0.9 0.9-1.9 2.4-3.4z"/>
											</g>
											<path id="&lt;Path&gt;" class="s14" d="m110.6 735.2c40.9-0.6 81.8 1 123.2 4.3 6 0.4 11.7 2.6 16 6.4 8.4 7.4 13.2 18.3 11.9 28.9-1.3 10.6-8.6 20.4-18.2 26.1-4.9 2.9-10.7 4.1-16.5 3.7-39-2.7-77.9-5.4-117.1-8.4 0-2.8 0-5.6 1.8-9.3 36.3 2.6 72.5 5.2 110.4 7.8 13.3 0.9 25.7-7 28.3-18.8q0.4-1.7 0.5-3.4 0.1-1.7-0.1-3.4c-1.2-12-12.7-21-26-21.4l-113.4-3c0-2.6-0.1-5.2-0.8-9.5z"/>
										</g>
									</g>
									<g id="&lt;Group&gt;">
										<g id="&lt;Group&gt;">
											<g id="&lt;Group&gt;">
												<path id="&lt;Path&gt;" class="s15" d="m352.2 690.2c0.1 11.2-5.1 21.9-12.6 32-31.1 7-62.2 14-93.1 20.6-22.9-30.9-59.5-41.7-85.5-54.4q-2.2-1.1-4.3-2.2c-7.4-3.9-14.8-7.8-20.6-12.2 37-4.9 74-9.8 110.7-14.7 28.5 1.4 57.1 2.7 87 3.4q1.1 0.1 2.1 0.1c10.2 4.6 16.3 16.1 16.3 27.4z"/>
												<path id="&lt;Path&gt;" class="s9" d="m298.2 719.1q-8.2 1.9-16.3 3.8c3.2-9.7 2.1-21.1-3.1-29.4 5.3-1.1 10.7-2.1 16.9-2.7 5.3 8 6.6 18.6 2.5 28.3z"/>
											</g>
											<g id="&lt;Group&gt;">
												<path id="&lt;Path&gt;" class="s16" d="m333.8 662.7c-33.4 9.4-67.7 15.6-102.3 18.6l-23.6 10c-15.6 1.4-31.5 0.3-46.9-2.9q-2.2-1.1-4.3-2.2c-7.4-3.9-14.8-7.8-20.6-12.2 37-4.9 74-9.8 110.7-14.7 28.5 1.4 57.1 2.7 87 3.4z"/>
												<path id="&lt;Path&gt;" class="s10" d="m265.1 671.7q-26.1-1.8-52.1-3.6c-11.4 1.2-21.8 2.4-32.2 4.1 18.2 0.4 39.5 2.2 57.4 3.4 9.6-1.2 16.7-2.1 26.9-3.9z"/>
											</g>
										</g>
										<g id="&lt;Group&gt;">
											<path id="&lt;Path&gt;" class="s10" d="m137.8 732c8.7-15.8 9.1-35.9 2.7-51.5 33.6-0.3 67.1 1.5 100.4 5.4 5.2 0.6 10.5 1.3 15.1 3.8 10.7 5.9 14.3 20.8 9.3 31.9-5 11.1-16.8 18.2-27.7 19.1-33.5-5.4-67.5-8-99.8-8.7z"/>
											<g id="&lt;Group&gt;">
												<path id="&lt;Path&gt;" class="s11" d="m261.6 696.4q-47.8-0.2-95.6-0.5 47.8 2.5 95.5 5c-0.5-1.3-1-2.6 0.1-4.5z"/>
												<path id="&lt;Path&gt;" class="s11" d="m267.5 706.6q-37.7-0.9-75.5-1.7 37.4 2.7 74.7 5.5c0-1.3 0-2.5 0.8-3.8z"/>
												<path id="&lt;Path&gt;" class="s11" d="m267.2 716.2q-49-0.9-98-1.7 48 1.6 95.8 4.9c0.1-1.1 0.2-2.1 2.2-3.2z"/>
												<path id="&lt;Path&gt;" class="s11" d="m261.8 725q-29.6-1.6-59.2-3.3 28.9 3.4 57.9 6.8c0.2-1 0.5-2 1.3-3.5z"/>
											</g>
											<path id="&lt;Path&gt;" class="s17" d="m133.9 674.7c37-0.7 74.1 0.9 111.7 4.2 5.4 0.5 10.6 2.6 14.5 6.4 7.7 7.4 12 18.3 10.8 28.9-1.2 10.7-7.8 20.4-16.5 26.2-4.4 2.8-9.7 4.1-15 3.7-35.3-2.7-70.6-5.4-106.1-8.5 0-2.7 0-5.5 1.6-9.2 32.9 2.6 65.8 5.2 100.1 7.7 12.1 0.9 23.4-6.9 25.7-18.8q0.3-1.6 0.4-3.4 0.1-1.7 0-3.4c-1.1-12-11.5-21-23.6-21.4l-102.9-3c0-2.6-0.1-5.2-0.7-9.4z"/>
										</g>
									</g>
								</g>
							</g>
						</g>
					</g>
					<g id="&lt;Group&gt;">
						<path id="&lt;Path&gt;" class="s8" d="m541.2 812c113.2 0 205 18.8 205 42 0 23.2-91.8 42-205 42-113.2 0-205-18.8-205-42 0-23.2 91.8-42 205-42z"/>
						<g id="&lt;Group&gt;">
							<g id="&lt;Group&gt;">
								<path id="&lt;Path&gt;" class="s18" d="m532 852.9c28.9 0.2 57.7 5.4 86.6 4 28.9-1.4 59.3-10.7 77.2-33.5 21.3-27.1 19.4-66.3 8.3-100.5-60.1-1.8-120.1-3.7-179.4-8-5.3 2.7-11.1 4.6-17.8 7.3-0.5 2.1-3.4 2.6-5.4 1.8-2-0.8-3.5-2.4-5.5-3.3-2.3-1.1-5.1-1-7.3 0.3-2.2 1.3-3.8 3.6-4.3 5.3-23.3-6.4-47.7-8.5-71.3-5.3-8.9 14.2-16.2 29.4-21.8 45.2 39.3 25.1 77.6 51.7 114.8 79.9"/>
								<g id="&lt;Group&gt;">
									<path id="&lt;Path&gt;" class="s19" d="m466.2 554.9c-4.5-6-9.8-11.5-15.3-16.9-10.9 6.5-19.1 16.8-25.1 27.9-6.1 11.1-10 23.3-14 35.3-1.1 3.3-2.2 6.8-1.4 10.1 0.7 3 2.9 5.5 5 7.7 7.7 8.1 16.4 15.3 25.9 21.2 17.7-23.8 27.4-53.5 24.9-85.3z"/>
									<path id="&lt;Path&gt;" class="s20" d="m711.5 747.6c-27.7-13.4-61-14.5-89.6-3.1-15.5 6.2-30.1 16.1-46.8 17.5-13.7 1.1-27.4-3.7-39-11-11.7-7.3-21.6-17-31.4-26.6 1.3-8.1 5.5-15.9 11.2-22.4-42.5-43.1-66.4-101.8-68.5-161.5 27.3-23.4 61.7-40.9 98.2-49.9 37.5 5 74.5 21 104.2 47.3 28.9 82.3 52.7 134.2 61.7 209.7z"/>
								</g>
							</g>
							<g id="&lt;Group&gt;">
								<path id="&lt;Path&gt;" class="s21" d="m561.3 799.1q-66.1-29.2-132.1-58.5c-15.9-7-32.1-14.1-49.4-15.9-17.2-1.8-36.1 2.6-47.7 15.5-12.4 13.9-14 35.4-6.8 52.6 7.3 17.2 22.2 30.2 38.8 38.7 16.6 8.5 35 12.9 53.2 16.8 43.6 9.2 87.7 16.1 131.7 22.9 5.9-23.1 11.8-46.1 12.3-72.1z"/>
								<g id="&lt;Group&gt;">
									<path id="&lt;Path&gt;" class="s22" d="m656.9 901c-3.7 5.8-8.8 10.8-14.9 14.2-16 8.8-37.6 5.6-49.6-6.8-2.1-2.2-3.8-4.7-5.2-7.3-0.2-0.4-0.4-0.8-0.6-1.2-6.7-12.6-14.1-24.7-22-36.5 15.3-8.1 30.2-16.7 51.5-28.3 10.5 3.5 20.5 8.6 29.9 15.2 6.8 4.7 11.7 11.2 14.3 18.4 3.8 10.4 3 22.3-3.4 32.3z"/>
									<path id="&lt;Path&gt;" class="s23" d="m656.9 901c-3.7 5.8-8.8 10.8-14.9 14.2-16 8.8-37.6 5.6-49.6-6.8-2.1-2.2-3.8-4.7-5.2-7.3-0.2-0.4-0.4-0.8-0.6-1.2 15.9 8.9 36.2 10.1 51.9 1.1 11.8-6.7 19.6-19.2 21.8-32.4 3.8 10.5 3 22.4-3.4 32.4z"/>
								</g>
								<g id="&lt;Group&gt;">
									<path id="&lt;Path&gt;" class="s22" d="m452.4 887.4q-32.3 13.3-63.4 29.3-0.4 0.2-0.8 0.4c-13.3 6.3-29.5 2.6-37.8-9.6q-1-1.5-1.9-3.3c-5.6-11.3-4.5-25.2 0.3-36.9q0.7-1.6 1.4-3.1c7.3-15.7 22-26.4 38.9-29.3q3.5-0.6 7-0.7c12.5-0.5 25.4-0.8 38.3-0.6 8.4 22.9 13.2 38.3 18 53.8z"/>
									<path id="&lt;Path&gt;" class="s23" d="m388.2 917.1c-13.3 6.3-29.5 2.6-37.8-9.6q-1-1.5-1.9-3.3c-5.6-11.3-4.5-25.2 0.3-36.9q0.7-1.6 1.4-3.1c7.3-15.7 22-26.4 38.9-29.3-8.8 4.7-16.9 10.4-23.3 17.9-11.1 13-15.8 33.1-6.3 47.3 6.3 9.7 17.1 14.4 28.7 17z"/>
								</g>
								<path id="&lt;Path&gt;" class="s24" d="m457.9 905.8c62.7-15.6 126.2-32.1 182.3-64 19.5-11.1 38.8-24.9 48.6-44.9 9.8-20.1 6.9-47.6-11.8-60.2-12.2-8.1-28.4-8.4-42.5-4.2-14.2 4.2-26.8 12.2-39.4 19.7-54.8 32.6-114.2 57.8-174.8 74.4-0.8 29.6 12.3 59.1 37.6 79.2z"/>
							</g>
							<g id="&lt;Group&gt;">
								<path id="&lt;Path&gt;" class="s25" d="m427 455.4c-2.5-4.1-7.1-7-12-7.3-4.8-0.3-9.8 1.9-12.8 5.7-3.6 4.5-4.3 10.9-3 16.5 1.6 6.8 5.9 12.9 11.8 16.6 6 3.7 13.4 5 20.2 4.3-1.6-10.5 3.4-23.1-4.2-35.8z"/>
								<g id="&lt;Group&gt;">
									<path id="&lt;Path&gt;" class="s26" d="m558.1 517.4c-2.8 13.6-8.5 26.3-18 36.3-3.5 3.6-7.7 7-12.7 7.6-4.6 0.6-9.1-1.1-12.8-3.9q-0.7-0.5-1.3-1.1c-3.9-3.3-6.8-7.7-9.6-12-1.2-2-2.5-4.2-2.1-6.4 0.4-1.9 2-3.3 3.4-4.5 17-14.8 34.1-29.7 54.4-51.3 1.3 11.7 1 23.8-1.3 35.3z"/>
									<path id="&lt;Path&gt;" class="s25" d="m558.1 517.4c-3.4 7.1-7.8 13.7-13.1 19.5-8.4 9.1-18.9 16.2-30.4 20.5q-0.7-0.5-1.3-1.1c-3.9-3.3-6.8-7.7-9.6-12-1.2-2-2.5-4.2-2.1-6.4 0.4-1.9 2-3.3 3.4-4.5 17-14.8 34.1-29.7 54.4-51.3 1.3 11.7 1 23.8-1.3 35.3z"/>
								</g>
								<g id="&lt;Group&gt;">
									<path id="&lt;Path&gt;" class="s22" d="m595.7 417.1c-0.8 16.7-7.6 32.4-16.1 49.2-30.3-0.3-60.6 1.4-90.7 5.1l-54.5-2c-17.7-9.7-32.9-23.9-43.9-40.7q-1-1.5-1.9-3.1c-2.4-3.9-4.7-8.2-3.9-12.7 0.7-4.5 5.9-8.4 9.8-6.1-8.1-9.3-12.9-21.2-13.8-33.4-0.2-3.9-0.1-7.9 1.4-11.5 1.5-3.6 4.5-6.7 8.3-7.4 3.6-0.7 7.8 1.2 9 4.6-3.1-10.2-7-21.6-2.8-31.8 1.7-4 4.6-7.5 8.3-9.6 9-5 20.3-1.2 29.5 3.4 9.1 4.7 18.8 10.4 29 9-4-2.8-3.6-9.5 0.1-12.3 3.7-2.9 9-2.5 13.3-0.7 4.3 1.9 7.8 5 11.8 7.6 10.1 6.5 22.2 9 34 11.2 11.8 2.2 24 4.4 34.4 10.5 3 1.7 5.9 3.9 8.4 6.4 6.2 6 10.4 14 10.2 22.5 14.1 7.1 20.8 25.2 20.1 41.8z"/>
									<path id="&lt;Path&gt;" class="s27" d="m565.4 352.8c-7.4-4.4-16.6-6.5-25.3-7.4-14.6-1.6-30.3-1.5-42.5-9.6-2.6-1.7-4.9-3.7-7.7-5-2.8-1.3-6.1-1.8-8.8-0.4-2.7 1.5-4.1 5.4-1.6 9-13.6 1.3-27.6-0.9-40.2-6.2-5.8-2.4-11.9-5.6-18.1-4.3-7.4 1.5-12.2 9.3-12.8 16.8-0.5 7.6 2.1 15 4.8 22.1-5.5-5-15.2-2.8-19.6 3.2-4.3 6-4.1 14.5-1.3 21.4 2.8 6.9 7.8 12.6 12.7 18.2-6.7-0.5-12.4 5.6-13.9 12.1q-0.7 2.9-0.6 6-1-1.5-1.9-3.1c-2.4-3.9-4.7-8.2-3.9-12.7 0.7-4.5 5.9-8.4 9.8-6.1-8.1-9.3-12.9-21.2-13.8-33.4-0.2-3.9-0.1-7.9 1.4-11.5 1.5-3.6 4.5-6.7 8.3-7.4 3.6-0.7 7.8 1.2 9 4.6-3.1-10.2-7-21.6-2.8-31.8 1.7-4 4.6-7.5 8.3-9.6 9-5 20.3-1.2 29.5 3.4 9.1 4.7 18.8 10.4 29 9-4-2.8-3.6-9.5 0.1-12.3 3.7-2.9 9-2.5 13.3-0.7 4.3 1.9 7.8 5 11.8 7.6 10.1 6.5 22.2 9 34 11.2 11.8 2.2 24 4.4 34.4 10.5 3 1.7 5.9 3.9 8.4 6.4z"/>
								</g>
								<g id="&lt;Group&gt;">
									<path id="&lt;Path&gt;" class="s26" d="m592.7 476.2c-4.5 9-16.8 13.1-25.9 8.8-9.1 17.1-19.3 32.4-33.3 43.6-14 11.2-32.2 17.9-50 15.6-26.1-3.5-46.5-25.6-55.7-50.2-8.3-21.9-9.2-45.8-9.3-69.3q0-4.2 0-8.4c24.6 8.3 52 3.5 72.5-11.2-1.5 3.1-2.1 6.5-1.5 9.9 0.5 3.3 2.4 6.7 5.5 8.1 2.9 1.4 6.3 0.8 9.4-0.1 12.8-3.4 24.6-10.4 33.7-20.1-1.3 17.5 3.8 34.4 13.3 48.3q3.3 5 7.4 9.4c3.7-9.8 16.1-14.6 25.2-10.2 9.1 4.3 13.2 16.7 8.7 25.8z"/>
									<path id="&lt;Path&gt;" class="s25" d="m551.4 451.2c-9.9-7.2-17.1-18.3-19.7-30.8-12.7 11.7-34.3 15.6-43 9-3.6-2.8-6.9-7.2-5.3-12-19.4 11-43.4 13.6-64.9 7.3q0-4.2 0-8.4c24.6 8.3 52 3.5 72.5-11.2-1.5 3.1-2.1 6.5-1.5 9.9 0.5 3.3 2.4 6.7 5.5 8.1 2.9 1.4 6.3 0.8 9.4-0.1 12.8-3.4 24.6-10.4 33.7-20.1-1.3 17.5 3.8 34.4 13.3 48.3z"/>
								</g>
								<g id="&lt;Group&gt;">
									<path id="&lt;Path&gt;" class="s22" d="m492.1 444.1c2.7-7.1 10.8-11.7 18.3-10.4 7.5 1.4 13.4 8.7 13.3 16.3-3-5.1-8.2-8.8-14-9.8-5.8-1.1-12.1 0.6-17.6 3.9z"/>
									<path id="&lt;Path&gt;" class="s22" d="m456.2 446.3c-1.9-4.2-5.1-7.9-9.4-9.9-4.2-2-9.4-2-13.3 0.4-4 2.4-6.4 7.4-5.4 11.9 3.4-3.9 8.4-6.5 13.6-6.9 5.2-0.5 10.5 1.1 14.5 4.5z"/>
									<path id="&lt;Path&gt;" class="s28" d="m469.3 480.4c-0.6 5 0.9 10.3 4 14.2"/>
									<path id="&lt;Path&gt;" class="s28" d="m476.8 513.3c5.7 2.3 12.2 2.4 18 0.4 5.8-2.1 10.8-6.3 13.7-11.7"/>
									<path id="&lt;Path&gt;" class="s22" d="m452.3 475.4c2.5-0.3 4.9 2.5 5.4 6.2 0.4 3.8-1.2 7-3.7 7.3-2.6 0.3-5-2.5-5.4-6.2-0.5-3.8 1.2-7 3.7-7.3z"/>
									<path id="&lt;Path&gt;" class="s22" d="m503.1 473.7c2.5-0.3 4.9 2.5 5.3 6.2 0.5 3.8-1.2 7-3.7 7.3-2.5 0.3-4.9-2.4-5.4-6.2-0.4-3.7 1.3-7 3.8-7.3z"/>
								</g>
							</g>
							<g id="&lt;Group&gt;">
								<g id="&lt;Group&gt;">
									<path id="&lt;Path&gt;" class="s25" d="m667.5 623.5c8.7 30.5 14 61.9 15.1 94.2-23.1-5.7-45.2-15.6-64.9-29.1 0.9-15.4 0.1-30.9-2.4-46.2 17.5-2.2 34.8-5.7 52.2-18.9z"/>
									<path id="&lt;Path&gt;" class="s19" d="m602.9 672.1c30.3-3.2 59.3-16.8 80-38.2-6.6-26.7-15.5-56.7-25.5-84-5.8-16-22.1-25.7-38.9-23.1q-0.3 0-0.6 0c-17.1 2.8-29.6 17.7-29.8 35-0.5 36.6 3.5 71 14.8 110.3z"/>
									<path id="&lt;Path&gt;" class="s26" d="m580.9 683.5c9.6 19.2 21.5 37.3 35.3 53.7 8.6 10.2 19.3 20.4 32.6 20.7 8.8 0.2 17.3-4.2 23.1-10.8 5.8-6.6 9.2-15 10.7-23.7 1.4-7.6 1.2-16-3.1-22.4-2.9-4.3-7.3-7.3-11.7-10.2q-35.9-23.7-71.9-47.4c-4.2 14.2-8.4 28.4-15 40.1z"/>
								</g>
								<g id="&lt;Group&gt;">
									<g id="&lt;Group&gt;">
										<path id="&lt;Path&gt;" class="s29" d="m355.5 657.5c1.1 19.6 3.7 39 7.9 58.2 2.1 9.4 4.8 19.2 11.7 26 8.6 8.6 22.7 10.2 34.1 6 11.4-4.2 20.5-13.5 26.7-24 6.2-10.5 10-22.2 13.8-33.8-27.2-15.8-57.3-26.7-94.2-32.4z"/>
										<path id="&lt;Path&gt;" class="s30" d="m409.9 684.5c4.3 9.2 7.7 19 10 28.9"/>
									</g>
									<g id="&lt;Group&gt;">
										<g id="&lt;Group&gt;">
											<g id="&lt;Group&gt;">
												<path id="&lt;Path&gt;" class="s2" d="m421.2 625.7c5.3-18.7 22.4-31.7 40-40.1 27.9-13.2 60-18.3 92-12.6 4.6 33.8 9.3 67.5 14.7 101.2q-7 3.1-13.9 6.1c-16.9-15.2-37.3-26.1-58.5-34.1-21.2-8.1-43.3-13.6-74.3-20.5z"/>
												<g id="&lt;Group&gt;">
													<path id="&lt;Path&gt;" class="s31" d="m423.9 626.6c0.9-17.5-5-35.3-16.3-48.8-11.2-13.5-27.7-22.5-44.9-24 3.8 10.9 7.7 21.8 11.5 32.8 15.3 9.6 29.7 20.5 49.7 40z"/>
													<path id="&lt;Path&gt;" class="s2" d="m424.3 629.1c-1.7-17-9.7-33.4-22.1-45.3-12.4-11.9-29.1-19.2-46.4-20.1-3.2 6.5-6.4 13.1-8.8 23.2q29.9 30.4 59.7 60.8c4.1-6.2 9.7-11.5 17.6-18.6z"/>
												</g>
											</g>
											<g id="&lt;Group&gt;">
												<path id="&lt;Path&gt;" class="s12" d="m560.3 684c-30.4-1.9-61.4 9.2-83.6 30.1q-0.3 0.1-0.7 0.1c-4.3 0.6-7.7 0.8-10.8 0.9-1.3 0.1-2.5 0.1-3.7 0.2q-0.3-0.6-0.7-1.1c-7.1-12.3-19.3-21.1-33-25-14.1-4.1-29.7-2.8-43 3.4-15.4-37.8-30.5-74.7-45.5-111.5 31.2-0.2 61.5 14.6 77.2 39.5q0.2 0.4 0.4 0.7c3.3 1.4 6.8 2.1 10.5 2.5q1.4 0.1 2.7 0.2 0.2-0.3 0.3-0.7c3.8-6.8 12.5-13.9 24.5-19.8 21.7-10.8 54.1-18.2 87.9-15.2 3.9 23.1 8.1 46.1 12.7 70.5 1.6 8.2 3.2 16.6 4.8 25.2z"/>
												<path id="&lt;Path&gt;" class="s9" d="m465.2 715.1c-1.3 0.1-2.5 0.1-3.7 0.2q-0.3-0.6-0.7-1.1c-7.1-12.3-19.3-21.1-33-25-14.1-4.1-29.7-2.8-43 3.4-15.4-37.8-30.5-74.7-45.5-111.5 31.2-0.2 61.5 14.6 77.2 39.5q0.2 0.4 0.4 0.7c3.3 1.4 6.8 2.1 10.5 2.5 3.6 7.5 6.9 14.8 10.2 22 10.2 22.7 20.5 45.5 27.6 69.3z"/>
												<path id="&lt;Path&gt;" class="s32" d="m555.5 658.8c-7-20-12.7-40.4-17.2-61.1-28.5-6.2-57.4-3.8-83.4 5.8 21.7-10.8 54.1-18.2 87.9-15.2 3.9 23.1 8.1 46.1 12.7 70.5z"/>
												<path id="&lt;Path&gt;" class="s32" d="m476 714.2c-6.1 0.8-10.3 0.9-14.5 1.1q-0.3-0.6-0.7-1.1-22-45.9-44-91.8-0.2-0.9-0.3-1.8 0.2 0.4 0.4 0.7c4.1 1.7 8.5 2.4 13.2 2.7q0.2-0.3 0.3-0.7c14.7 29.9 30.1 60.4 45.6 90.9z"/>
											</g>
										</g>
										<g id="&lt;Group&gt;">
											<g id="&lt;Group&gt;">
												<path id="&lt;Path&gt;" class="s9" d="m542.3 625.4c-8.5 0.2-17.3 0.4-24.6 4.7-2.2 1.3-4.2 2.9-5.2 5.2-1 2.2-0.8 5.2 1 6.9 1.6 1.5 4.1 1.8 6.3 1.9q16.1 1 32.2 1.9c-0.7-6.6-3-13.1-9.7-20.6z"/>
												<path id="&lt;Path&gt;" class="s9" d="m519.6 657.9c-1.7 1-3.4 2.1-4.6 3.7-1.1 1.5-1.8 3.6-1.2 5.5 0.5 1.7 1.9 3 3.5 3.9 1.6 0.8 3.4 1.1 5.3 1-2.5 2.9-1.9 7.6 0.6 10.5 2.5 2.9 6.3 4.2 10.1 4.7q-2.3-13.2-3.2-26.6c-3.3 0.2-6.6-0.4-10.5-2.7z"/>
											</g>
											<g id="&lt;Group&gt;">
												<path id="&lt;Path&gt;" class="s26" d="m598 646.6c0 0-2.3-20.8-15.2-30.4-7.3-5.4-15.8-10.3-24.9-9 0.9 5.6 1.5 10.8 2.5 17.2-13.3-0.4-26.5-1.3-39.1 3.1-2.8 1-5.7 2.3-7.4 4.8-1.7 2.5-1.7 6.4 0.8 8.1 1.3 0.9 3 1 4.5 1.1 12.8 0.8 25.6 1.7 38.4 3.6-7.9 6.7-18.1 10.5-28.3 10.8-3 0.1-5.9-0.1-8.8 0.7-2.8 0.8-5.5 2.8-6 5.7-0.7 4 3.1 7.4 7.1 9.2-1.4 2.6-1.2 5.9 0.4 8.3 1.6 2.5 4.6 3.9 7.8 4.7-1.4 2.4-0.4 5.6 1.5 7.5 2 1.9 4.7 2.7 7.4 3.4 15.5 3.7 32.4 1.3 46.6-5.8 5.9-14.6 12.7-43 12.7-43z"/>
												<g id="&lt;Group&gt;">
													<path id="&lt;Path&gt;" class="s28" d="m523.1 672.4c11.8 2.4 24.3 1.6 35.7-2.5"/>
													<path id="&lt;Path&gt;" class="s28" d="m530.7 686.9c9.6 3 20.4 2 29.3-2.6"/>
												</g>
											</g>
										</g>
										<g id="&lt;Group&gt;">
											<path id="&lt;Path&gt;" class="s33" d="m385 630.6c2.3 1.2 4 3.4 4.6 5.9 0.5 2.5-0.1 5.3-1.7 7.3-2.4 2.8-6.5 3.6-10.2 4.2-2.3 0.3-4.6 0.7-6 0.7 4.4 7 12.1 11.7 20.9 12.9 2.4-0.2 4.9-0.1 7.1 0.8 2.2 0.9 4.2 2.6 5.1 4.8 0.9 2.3 0.5 5.1-1.2 7.5 2.2 2.4 2.8 6.2 1.4 9.1-1.3 3-4.5 5.1-7.7 5.1-3.1-8.8-8.8-16.6-15.4-23.1-6.7-6.6-14.3-12.2-21.8-17.7 2.5-2.9 4.2-6.5 4.8-10.3 6.1-1.2 12.1-2.5 20.1-7.2z"/>
											<g id="&lt;Group&gt;">
												<path id="&lt;Path&gt;" class="s26" d="m345.6 635.2q0 2 0.3 4c0.4 3.8 3.5 6.8 7.3 7.2 9.7 1 19.5 0.7 29.2-0.9 3.8-0.6 6.7-3.8 7-7.7q0-0.1 0-0.2c0.2-4.3-2.8-8.1-7.1-8.7-9.3-1.5-18.8-2.2-28.2-2.4-4.8-0.1-8.7 3.9-8.5 8.7z"/>
												<path id="&lt;Path&gt;" class="s26" d="m353.8 645.8c-2.3 6.5-2.4 13.8-0.2 20.4 0.6 1.8 1.4 3.6 2.7 5.1 1.3 1.4 3.2 2.4 5.1 2.2-0.9 3.4-0.2 6.6 1 9.7 1 2.4 2.3 4.8 4.3 6.5 2 1.8 4.8 2.7 7.3 2 1 3.5 1.9 6.8 3.7 9.6 1.9 2.9 4.7 5.3 8 5.7 4.3 0.7 8.3-1.8 11.8-4.1 3-1.8 6-3.9 7.5-7 1.5-3.2 0.5-7.7-2.8-8.8 2.4-3.3 2.3-9.2-0.9-12.6 2.2-1.6 2.2-4.9 1.7-7.5-0.5-2.1-1.1-4.3-2.5-5.9-2.5-2.6-6.6-2.9-10.1-2.5-3.6 0.4-7.3 1.2-10.7 0-4.7-3.6-8.8-7.6-12.6-12.1-4.3-0.2-8.6-0.4-13.3-0.7z"/>
												<g id="&lt;Group&gt;">
													<path id="&lt;Path&gt;" class="s28" d="m363.4 674.5c11.2 5 24.4 5.5 35.9 1.1"/>
													<path id="&lt;Path&gt;" class="s28" d="m376 692.8c8.4 1.3 17.2 0 24.7-3.9"/>
												</g>
											</g>
										</g>
									</g>
								</g>
							</g>
						</g>
					</g>
					<g id="&lt;Group&gt;">
						<path id="&lt;Path&gt;" class="s8" d="m666.6 873c0-14.5 33.7-28.2 105-28.2 71.2 0 129 11.8 129 26.3 0 14.6-57.8 26.4-129 26.4-71.3 0-105-9.9-105-24.5z"/>
						<g id="&lt;Group&gt;">
							<g id="&lt;Group&gt;">
								<path id="&lt;Path&gt;" class="s15" d="m877.1 788.9c12.6 20.6 11.7 49.2-1.4 68.9-16.4 11.2-32.2 19.6-48.9 29.2-2.6-25.4-6.5-49-9.2-74.3-0.1-1.7-0.3-3.5 0.6-4.8 0.9-1.4 2.6-1.9 4.1-2.3 16.7-4.6 33.3-9.1 54.8-16.7z"/>
								<g id="&lt;Group&gt;">
									<path id="&lt;Path&gt;" class="s10" d="m688.4 880.5c9.8-19.8 9.2-44.5 0.6-63.3 41.1-2.2 82.4-1.9 123.4 1 6.4 0.5 12.9 1 18.7 3.8 13.4 6.6 18.5 24.7 13 38.6-5.5 13.9-19.6 23.2-32.9 25-41.3-4.8-83.2-6.1-122.8-5.1z"/>
									<g id="&lt;Group&gt;">
										<path id="&lt;Path&gt;" class="s11" d="m838.2 829.9q-58.5 2.4-117.1 4.7 58.6 0.4 117.3 0.8c-0.7-1.5-1.4-3.1-0.2-5.5z"/>
										<path id="&lt;Path&gt;" class="s11" d="m846 842q-46.3 1.1-92.6 2.2 45.9 1.3 91.9 2.5c-0.1-1.5-0.1-3 0.7-4.7z"/>
										<path id="&lt;Path&gt;" class="s11" d="m846.2 853.9q-60.1 1.7-120.2 3.4c39.3-0.5 78.5-0.3 117.6 0.6 0.1-1.3 0.2-2.6 2.6-4z"/>
										<path id="&lt;Path&gt;" class="s11" d="m840 864.9q-36.3-0.3-72.7-0.6 35.7 2.5 71.3 4.9c0.2-1.1 0.5-2.3 1.4-4.3z"/>
									</g>
									<path id="&lt;Path&gt;" class="s17" d="m680.5 810.4c45.4-2.9 91-3 137.2-1.1 6.7 0.3 13.1 2.7 18.1 7.1 9.8 8.6 15.6 21.7 14.8 34.8-0.9 13.1-8.5 25.4-18.9 33-5.2 3.8-11.7 5.6-18.1 5.4-43.4-1.3-86.9-2.6-130.6-4.4-0.2-3.4-0.3-6.8 1.5-11.4 40.5 1.3 80.9 2.6 123.2 3.9 14.7 0.4 28.2-9.9 30.4-24.5q0.4-2.1 0.4-4.2 0-2.1-0.3-4.2c-2-14.6-15.2-25.1-30-24.9l-126.3 2.1c-0.2-3.2-0.3-6.4-1.4-11.6z"/>
								</g>
							</g>
							<g id="&lt;Group&gt;">
								<path id="&lt;Path&gt;" class="s13" d="m833.7 809.4c3.7 0.5 7.3 1 11.5 1.4 13.8-5.8 27.6-11.5 41.8-16.6 8-10.1 13.8-22.7 13.5-35.8-0.2-13.1-7.5-26.4-19.2-30.9q-27.8 2.5-55.6 5c4.7 23.5 8 47.3 8 76.9z"/>
								<g id="&lt;Group&gt;">
									<path id="&lt;Path&gt;" class="s10" d="m691.8 806.3c11-17.3 10.7-38.8 1.7-55.1 44.8-2.1 89.7-1.9 134.4 0.5 6.9 0.4 14 0.9 20.3 3.3 14.5 5.7 19.8 21.5 13.6 33.6-6.3 12.1-21.7 20.2-36.2 21.8-45-4.1-90.6-5.1-133.8-4.1z"/>
									<g id="&lt;Group&gt;">
										<path id="&lt;Path&gt;" class="s11" d="m855.8 761.9q-49.2 1.6-98.4 3.2 49.2 0.8 98.6 1.5c-0.6-1.3-1.2-2.7-0.2-4.7z"/>
										<path id="&lt;Path&gt;" class="s11" d="m864.2 772.4q-67 1.7-133.9 3.4 66.3 0.3 132.6 0.7c0-1.4 0-2.7 1.3-4.1z"/>
										<path id="&lt;Path&gt;" class="s11" d="m864.2 782.7q-50.3 1-100.6 2.1 49.3-0.2 98.4 1.3c0.1-1.1 0.1-2.2 2.2-3.4z"/>
										<path id="&lt;Path&gt;" class="s11" d="m857.2 792.3q-64 0.8-128.1 1.5 62.7 1.2 125.4 2.3c0.5-1 1-2.1 2.7-3.8z"/>
									</g>
									<path id="&lt;Path&gt;" class="s14" d="m684.3 745.3c49.5-2.6 99.2-2.9 149.5-1.3 7.3 0.2 14.3 2.2 19.6 6.1 10.5 7.4 16.7 18.9 15.6 30.2-1.2 11.4-9.6 22.2-21.1 28.8-5.8 3.3-12.8 4.9-19.8 4.7-47.3-1-94.6-2-142.2-3.4-0.1-3-0.3-6 1.8-10 44 1.1 88.1 2.1 134.1 3.1 16.1 0.3 30.9-8.7 33.6-21.4q0.4-1.8 0.4-3.6 0.1-1.9-0.2-3.7c-1.9-12.7-16.2-21.8-32.3-21.6l-137.7 2.1c-0.1-2.8-0.2-5.6-1.3-10z"/>
								</g>
							</g>
							<g id="&lt;Group&gt;">
								<g id="&lt;Group&gt;">
									<path id="&lt;Path&gt;" class="s9" d="m872.2 734.9c-13.7 4.7-23.8 8-37.8 12.4q-1.5-1.6-3.1-3c-32.4-29.8-82.8-30-120.7-50.4-5.9-3.2-12.5-5.1-19-7.9 18.1-3.2 36.7-7 56.9-10.3 38.5-0.1 77.1-0.2 116.6-0.1h0.7c11 4.8 19 16.1 20.1 28.3 1.1 12.2-4.9 24.9-13.7 31z"/>
									<path id="&lt;Path&gt;" class="s34" d="m872.2 734.9c-13.7 4.7-23.8 8-37.8 12.4q-1.5-1.6-3.1-3c3.6-2.3 7.1-5 10.1-8.1 5.9-6.3 10-15 8.9-23.7-0.8-7-4.8-13.3-10.2-17.8-5.3-4.4-11.9-7.1-18.5-8.7q21.7-5.2 43.5-10.4h0.7c11 4.7 19 16.1 20.1 28.3 1.1 12.2-4.9 24.9-13.7 31z"/>
								</g>
								<g id="&lt;Group&gt;">
									<path id="&lt;Path&gt;" class="s10" d="m698.6 742.1c10.1-15.9 9.7-35.7 1.4-50.7 41-2 82.1-1.9 123.1 0.2 6.3 0.3 12.9 0.7 18.6 3 13.3 5.1 18.2 19.6 12.5 30.8-5.7 11.1-19.8 18.6-33.1 20.2-41.2-3.7-82.9-4.5-122.5-3.5z"/>
									<path id="&lt;Path&gt;" class="s11" d="m848.7 700.8q-61.5 2.3-123 4.7 61.6-0.2 123.1-0.3c-0.7-1.2-1.4-2.5-0.1-4.4z"/>
									<path id="&lt;Path&gt;" class="s11" d="m856.4 710.5q-48.1 1.2-96.2 2.4 47.7 0.6 95.3 1.3c0-1.2-0.1-2.4 0.9-3.7z"/>
									<path id="&lt;Path&gt;" class="s11" d="m856.4 719.9q-37.1 0.7-74.2 1.5 36.4 0 72.6 1.7c0.1-1 0.1-2.1 1.6-3.2z"/>
									<path id="&lt;Path&gt;" class="s11" d="m850.1 728.8q-64 1.1-128 2.2 62.6 0.7 125.3 1.4c0.5-1 1-2 2.7-3.6z"/>
									<path id="&lt;Path&gt;" class="s12" d="m691.6 686c45.3-2.5 90.8-2.8 136.9-1.6 6.6 0.2 13 2.1 18 5.6 9.6 6.8 15.3 17.3 14.3 27.8-1 10.5-8.7 20.4-19.2 26.5-5.3 3-11.7 4.5-18.2 4.4-43.3-0.8-86.6-1.7-130.2-2.8-0.1-2.7-0.2-5.5 1.6-9.2 40.4 0.9 80.7 1.7 122.9 2.5 14.7 0.2 28.2-8.1 30.7-19.8q0.3-1.6 0.4-3.3 0-1.7-0.3-3.3c-1.8-11.8-14.9-20.1-29.6-19.8l-126.1 2.3c-0.1-2.6-0.2-5.2-1.2-9.3z"/>
								</g>
							</g>
						</g>
					</g>
				</g>
				<g id="&lt;Group&gt;">
					<path id="&lt;Path&gt;" class="s2" d="m184.5 291.3c4.7 0.9 6.5 2.4 5.8 8.3 0.9-5.7 2.2-7 8.2-6.7-6.5-1.5-6.3-3.6-5.7-9-1 5.4-3 7.4-8.3 7.4z"/>
					<path id="&lt;Path&gt;" class="s2" d="m108.5 547.4c4.7 0.8 6.5 2.3 5.8 8.2 0.9-5.7 2.2-6.9 8.2-6.7-6.5-1.5-6.3-3.6-5.7-9-1 5.4-3 7.5-8.3 7.5z"/>
					<path id="&lt;Path&gt;" class="s2" d="m585.5 307.1c4.7 0.8 6.5 2.3 5.8 8.3 0.9-5.7 2.2-7 8.2-6.7-6.5-1.6-6.3-3.6-5.7-9.1-1 5.5-3 7.5-8.3 7.5z"/>
					<path id="&lt;Path&gt;" class="s2" d="m864.7 524.9c4.7-0.6 6.9 0.3 8 6.1-0.8-5.7 0.1-7.3 5.8-8.7-6.6 0.4-7.1-1.7-8.1-7 0.7 5.5-0.7 8-5.7 9.6z"/>
					<path id="&lt;Path&gt;" class="s2" d="m893.6 694.9c4.8-0.6 7 0.3 8.1 6.1-0.9-5.7 0-7.3 5.8-8.7-6.6 0.4-7.1-1.7-8.1-7 0.6 5.5-0.7 8-5.8 9.6z"/>
				</g>
			</g>
		</g>
	</g>
</svg>