<svg xmlns="http://www.w3.org/2000/svg" xmlns:xlink="http://www.w3.org/1999/xlink" version="1.1" x="0px" y="0px" viewBox="0 0 2000 2000" xml:space="preserve"><metadata><?xpacket begin="&#65279;" id="W5M0MpCehiHzreSzNTczkc9d"?><x:xmpmeta xmlns:x="adobe:ns:meta/" x:xmptk="Adobe XMP Core 5.3-c011 66.145661, 2012/02/06-14:56:27        "/><?xpacket end="w"?></metadata><g><g><path d="M1006.565,910.474c0.006-7.353-4.029-14.118-10.497-17.614c-0.444-0.24-44.998-24.53-97.216-70.585    C851.174,780.224,787.057,710.8,752.364,618.863c-2.938-7.785-10.39-12.938-18.712-12.938s-15.774,5.153-18.712,12.938    c-34.693,91.937-98.81,161.36-146.488,203.411c-52.219,46.055-96.773,70.345-97.203,70.577    c-6.478,3.488-10.518,10.252-10.518,17.609s4.04,14.121,10.518,17.609c0.437,0.235,44.261,24.038,96.392,69.863    c47.969,42.167,112.462,111.809,147.299,204.125c2.938,7.785,10.39,12.938,18.712,12.938s15.774-5.153,18.712-12.938    c34.693-91.937,98.81-161.36,146.489-203.411c52.218-46.055,96.772-70.345,97.202-70.577    C1002.528,924.585,1006.56,917.825,1006.565,910.474z"/></g><g><path d="M1168.679,1285.678c-0.763-0.414-76.597-42.301-105.245-118.217c-2.938-7.785-10.39-12.938-18.712-12.938    s-15.774,5.153-18.712,12.938c-28.647,75.916-104.482,117.803-105.213,118.2c-6.467,3.482-10.489,10.237-10.502,17.582    s4.016,14.114,10.47,17.62c0.763,0.414,76.597,42.301,105.245,118.217c2.938,7.785,10.39,12.938,18.712,12.938    s15.774-5.153,18.712-12.938c28.647-75.916,104.482-117.803,105.213-118.2c6.467-3.482,10.489-10.237,10.502-17.582    S1175.133,1289.184,1168.679,1285.678z"/></g><g><path d="M1528.78,764.011c-0.33-0.179-33.462-18.265-72.267-52.527c-35.3-31.168-82.764-82.59-108.414-150.563    c-2.938-7.785-10.39-12.938-18.712-12.938s-15.774,5.153-18.712,12.938c-25.65,67.974-73.114,119.396-108.414,150.563    c-38.805,34.263-71.937,52.349-72.248,52.518c-6.479,3.488-10.518,10.252-10.518,17.609s4.04,14.121,10.518,17.609    c1.305,0.703,131.129,71.817,180.662,203.08c2.938,7.785,10.39,12.938,18.712,12.938s15.774-5.153,18.712-12.938    c25.65-67.973,73.114-119.395,108.414-150.563c38.805-34.263,71.937-52.349,72.248-52.518c6.472-3.484,10.5-10.243,10.508-17.593    C1539.277,774.276,1535.244,767.51,1528.78,764.011z"/></g></g><text x="0" y="2015" fill="#000000" font-size="5px" font-weight="bold" font-family="'Helvetica Neue', Helvetica, Arial-Unicode, Arial, Sans-serif">Created by Rifai</text><text x="0" y="2020" fill="#000000" font-size="5px" font-weight="bold" font-family="'Helvetica Neue', Helvetica, Arial-Unicode, Arial, Sans-serif">from the Noun Project</text></svg>